<svg width="628" height="839" viewBox="0 0 628 839" fill="none" xmlns="http://www.w3.org/2000/svg">
<g clip-path="url(#clip0)">
<path opacity="0.5" d="M400.382 4.41485L123.4 1.28735L121.586 161.888L398.569 165.015L400.382 4.41485Z" fill="url(#paint0_linear)"/>
<g opacity="0.5">
<path opacity="0.5" d="M121.062 163.134L120.222 326.107L397.232 326.79L398.072 163.817L121.062 163.134ZM388.081 317.085L127.482 316.434L127.563 299.534L388.162 300.173L388.081 317.085ZM388.207 291.741L127.608 291.102L127.699 274.155L388.328 274.83L388.207 291.741ZM388.333 266.398L127.734 265.758L127.815 248.858L388.414 249.498L388.333 266.398ZM388.459 241.054L127.86 240.415L127.941 223.515L388.54 224.154L388.459 241.054ZM388.586 215.687L127.986 215.106L128.067 198.207L388.666 198.846L388.586 215.687ZM388.712 190.343L128.113 189.704L128.193 172.804L388.793 173.444L388.712 190.343Z" fill="url(#paint1_linear)"/>
</g>
<path d="M124.086 161.916L123.286 321.346L393.295 322.033L394.096 162.602L124.086 161.916ZM384.343 312.484L130.334 311.86L130.42 295.326L384.429 295.95L384.343 312.484ZM384.463 287.683L130.454 287.059L130.54 270.526L384.549 271.15L384.463 287.683ZM384.583 262.883L130.574 262.259L130.66 245.725L384.669 246.349L384.583 262.883ZM384.703 238.083L130.732 237.577L130.819 221.043L384.828 221.668L384.703 238.083ZM384.823 213.282L130.814 212.658L130.9 196.125L384.909 196.749L384.823 213.282ZM384.943 188.482L130.934 187.858L131.02 171.324L385.029 171.948L384.943 188.482Z" fill="#F5F5F5"/>
<path d="M397.342 7.9237L127.359 4.87524L125.559 164.295L395.542 167.343L397.342 7.9237Z" fill="#6C63FF"/>
<g opacity="0.5">
<path opacity="0.5" d="M29.3288 289.567L33.8419 285.78L31.7864 253.479L26.689 239.934L6.57736 248.824L29.3288 289.567Z" fill="url(#paint2_linear)"/>
<path opacity="0.5" d="M337.026 13.4904C324.944 6.45675 315.808 9.58962 309.384 15.2687C300.473 22.3606 296.304 34.6908 296.304 34.6908L294.511 40.186L286.202 47.1783L283.598 40.3934C283.598 40.3934 255.131 -21.1056 167.798 97.3699L167.402 96.9875C167.402 96.9875 159.952 107.533 153.15 119.266L152.18 120.956L151.752 121.719L151.139 122.822L150.69 123.644L150.037 124.817L149.454 125.921L148.821 127.095L148.371 127.987L147.9 128.915L147.45 129.831L146.979 130.83L146.292 132.322L145.912 133.156L145.491 134.12L145.183 134.86L144.782 135.824L144.535 136.471C144.315 137.043 144.105 137.608 143.906 138.165L143.678 138.812C143.575 139.118 143.481 139.424 143.388 139.718L143.201 140.342C143.062 140.813 142.937 141.272 142.825 141.719C142.763 141.955 142.7 142.202 142.657 142.426C142.3 143.878 142.154 145.39 142.227 146.897L26.6989 239.946L32.3981 255.104C32.3981 255.104 115.107 217.63 171.658 176.165L168.633 235.041L168.442 238.688C168.442 238.688 116.661 288.108 103.043 313.536L80.0084 328.865L103.535 370.94L109.179 366.208L113.063 333.041L208.059 245.371C208.059 245.371 226.312 207.123 226.986 174.924L230.637 192.527C230.637 192.527 238.52 219.78 244.317 220.955C250.114 222.131 250.365 199.93 246.38 193.295C242.394 186.66 244.871 142.706 244.871 142.706L245.972 133.766L260.823 121.309L261.37 120.701L262.078 126.236L265.074 126.577L265.071 126.825L264.991 126.824L265.113 128.432L266.529 170.398L276.403 217.952C276.403 217.952 284.296 245.204 290.083 246.38C295.87 247.555 296.131 225.355 292.156 218.72C288.18 212.085 290.647 168.131 290.647 168.131L295.35 131.572L295.438 130.864L295.547 130.051L303.997 131.008C303.997 131.008 313.169 95.3974 298.636 79.6673L296.032 72.8824L301.565 68.2207L302.676 67.2884C307.276 72.7062 313.496 75.7727 320.005 75.8308C326.513 75.8888 332.792 72.9338 337.495 67.5989C341.605 68.0962 345.736 66.8446 349.145 64.0692C349.892 63.4635 350.619 62.9048 351.306 62.2748C354.415 59.6999 356.992 57.3315 357.515 56.1799C358.972 52.9131 355.724 24.3781 337.026 13.4904Z" fill="url(#paint3_linear)"/>
</g>
<path d="M261.916 106.877L264.084 170.89L273.663 217.058C273.663 217.058 281.364 243.553 286.922 244.655C292.48 245.757 292.793 224.242 288.926 217.798C285.058 211.353 287.48 168.686 287.48 168.686L294.463 114.437L261.916 106.877Z" fill="#FDA57D"/>
<path d="M258.436 117.55L259.787 128.041L300.448 132.657C300.448 132.657 309.349 98.0824 295.25 82.806L258.436 117.55Z" fill="white"/>
<path d="M167.822 99.6613C167.822 99.6613 142.415 135.514 143.412 148.21L31.1958 238.473L36.73 253.192C36.73 253.192 117.026 216.813 171.944 176.558L168.828 237.263C168.828 237.263 118.553 285.248 105.334 309.888L115.06 328.895L207.298 243.721C207.298 243.721 235.026 185.608 222.406 153.578L167.822 99.6613Z" fill="#3AD29F"/>
<path d="M11.6771 247.11L31.1959 238.473L36.1475 251.638L38.1436 282.994L33.7619 286.665L11.6771 247.11Z" fill="black"/>
<path d="M105.334 309.877L82.9748 324.765L105.835 365.615L111.307 361.012L115.061 328.824L105.334 309.877Z" fill="black"/>
<path d="M295.24 82.794L280.67 44.7065C280.67 44.7065 252.925 -15.2726 167.699 100.758L222.407 153.578L258.561 123.279L295.24 82.794Z" fill="white"/>
<path d="M307.667 30.7519L320.802 52.6441L287.97 80.1867C286.801 81.168 285.35 81.5617 283.939 81.2815C282.527 81.0012 281.27 80.0699 280.444 78.6923L273.518 67.1499C272.692 65.7723 272.364 64.0614 272.607 62.3935C272.849 60.7255 273.643 59.2372 274.812 58.256L307.644 30.7134L307.667 30.7519Z" fill="#FDA57D"/>
<path opacity="0.05" d="M291.989 43.8895C290.791 48.7517 290.725 53.9008 291.798 58.7936C292.871 63.6864 295.043 68.1415 298.086 71.689L312.038 60.0362L298.895 38.0977L291.989 43.8895Z" fill="black"/>
<path d="M330.204 73.7829C341.097 64.6447 343.701 46.8582 336.02 34.0556C328.338 21.253 313.281 18.2825 302.388 27.4207C291.495 36.5588 288.892 54.3453 296.573 67.1479C304.254 79.9505 319.312 82.9211 330.204 73.7829Z" fill="#FDA57D"/>
<path opacity="0.05" d="M305.315 33.6942L291.192 44.542L292.932 39.2116C292.932 39.2116 304.8 4.07986 331.377 19.5681C349.538 30.1308 352.686 57.838 351.27 60.9635C350.707 62.1382 347.696 64.8914 344.194 67.6982C340.731 70.5342 336.499 71.7371 332.332 71.069C328.166 70.4009 324.37 67.9105 321.693 64.09C317.078 57.4477 309.072 43.7282 310.671 35.9278C309.334 32.9719 307.557 31.7708 305.225 33.7168L305.315 33.6942Z" fill="black"/>
<path d="M306.406 32.7733L292.282 43.6211L294.023 38.2907C294.023 38.2907 305.89 3.15897 332.467 18.6472C350.629 29.2099 353.776 56.9171 352.361 60.0426C351.798 61.2173 348.786 63.9706 345.284 66.7773C341.822 69.6133 337.589 70.8162 333.423 70.1481C329.257 69.48 325.46 66.9896 322.784 63.1691C318.168 56.5268 310.163 42.8073 311.761 35.0069C310.424 32.051 308.648 30.8499 306.316 32.7959L306.406 32.7733Z" fill="#5A2F32"/>
<path d="M309.655 36.8175C312.077 34.7855 313.348 31.9842 312.494 30.5605C311.64 29.1368 308.984 29.6299 306.562 31.6619C304.14 33.6938 302.868 36.4952 303.723 37.9189C304.577 39.3426 307.233 38.8495 309.655 36.8175Z" fill="#FDA57D"/>
<path opacity="0.05" d="M253.891 122.329L260.354 115.942L260.319 126.145L258.963 122.197L253.891 122.329Z" fill="black"/>
<path opacity="0.05" d="M262.591 128.58L262.714 130.152L292.041 133.188L292.238 131.714L262.591 128.58Z" fill="black"/>
<g opacity="0.05">
<path opacity="0.05" d="M154.047 121.284C149.477 129.204 145.231 137.719 143.881 143.869L147.393 141.038C146.974 136.51 149.959 129.033 154.047 121.284Z" fill="black"/>
<path opacity="0.05" d="M172.76 230.08L175.875 169.374C120.967 209.63 40.6313 246.008 40.6313 246.008L36.7001 253.18C36.7001 253.18 116.996 216.801 171.914 176.546L168.978 233.71C171.375 231.399 172.76 230.08 172.76 230.08Z" fill="black"/>
</g>
<path d="M217.492 82.2114L219.659 146.224L229.239 192.393C229.239 192.393 236.94 218.888 242.498 219.99C248.056 221.092 248.369 199.577 244.501 193.132C240.634 186.687 243.056 144.02 243.056 144.02L250.039 89.7714L217.492 82.2114Z" fill="#FDA57D"/>
<path opacity="0.05" d="M221.053 51.1196C221.053 51.1196 214.082 72.453 216.859 79.8186L221.053 51.1196Z" fill="black"/>
<path opacity="0.05" d="M217.634 81.1028L217.57 85.0821L249.745 91.8466L250.171 88.6626L217.634 81.1028Z" fill="black"/>
<path d="M225.283 48.5455L217.472 82.2113L250.009 89.7593L259.109 47.274L225.283 48.5455Z" fill="white"/>
<g opacity="0.5">
<path opacity="0.5" d="M222.843 165.393L228.949 194.173C228.949 194.173 236.924 221.226 242.782 222.308C248.64 223.39 248.898 201.461 244.872 194.884C242.751 191.423 242.435 177.767 242.612 165.569L222.843 165.393Z" fill="url(#paint4_linear)"/>
</g>
<path d="M223.363 165.399L229.235 193.574C229.235 193.574 236.937 220.069 242.495 221.171C248.053 222.273 248.366 200.758 244.498 194.313C242.466 190.924 242.167 177.551 242.342 165.601L223.363 165.399Z" fill="#FDA57D"/>
<g opacity="0.5">
<path opacity="0.5" d="M288.682 164.955L262.994 164.665L263.258 172.274L273.412 219.795C273.412 219.795 281.525 247.051 287.462 248.204C293.4 249.358 293.7 227.193 289.575 220.568C285.449 213.944 288.005 170.026 288.005 170.026L288.682 164.955Z" fill="url(#paint5_linear)"/>
</g>
<path d="M288.102 164.949L263.824 164.675L264.07 172.071L273.65 218.239C273.65 218.239 281.351 244.734 286.909 245.836C292.467 246.938 292.78 225.423 288.912 218.978C285.045 212.533 287.467 169.866 287.467 169.866L288.102 164.949Z" fill="#FDA57D"/>
<g opacity="0.5">
<path opacity="0.5" d="M620.341 629.304L316.36 625.871L316.147 644.766L620.127 648.198L620.341 629.304Z" fill="url(#paint6_linear)"/>
</g>
<path d="M618.341 629.281L321.36 625.928L321.186 641.279L618.168 644.633L618.341 629.281Z" fill="#6C63FF"/>
<g opacity="0.5">
<path opacity="0.5" d="M384.632 580.877L385.835 581.505L424.341 601.616L474.478 533.103C474.478 533.103 482.059 523.315 473.235 516.46C464.412 509.605 458.625 527.019 458.625 527.019L420.086 574.604L388.162 555.229L388.707 551.244L359.596 530.837C359.043 529.571 358.436 528.338 357.777 527.144L357.521 525.96L356.068 524.42C355.792 524.062 355.516 523.729 355.239 523.43L360.169 517.262C363.756 518.793 367.586 519.376 371.391 518.969C375.195 518.563 378.881 517.176 382.188 514.907C385.496 512.638 388.345 509.543 390.534 505.838C392.723 502.134 394.2 497.911 394.86 493.466C397.127 494.003 399.461 494.029 401.74 493.544C404.739 492.835 407.552 491.284 409.94 489.02C412.328 486.757 414.221 483.848 415.457 480.542C415.356 480.766 415.212 480.959 415.037 481.107C414.861 481.255 414.66 481.352 414.448 481.393C414.831 480.635 415.174 479.85 415.474 479.042C414.442 481.9 405.107 477.839 403.707 476.937C399.438 474.196 397.273 470.168 395.109 465.254C390.838 455.521 382.779 451.852 373.689 450.911C366.697 450.182 359.571 450.668 353.086 453.725C346.601 456.781 340.844 462.669 338.417 470.413C337.621 473.042 337.25 475.822 337.324 478.609C337.143 481.594 337.53 484.587 338.455 487.368C339.381 490.149 340.822 492.649 342.673 494.684C342.989 495.011 343.319 495.318 343.663 495.604C343.842 496.504 344.053 497.38 344.303 498.257L342.945 499.801L342.944 499.895L334.495 510.429L334.066 510.271L246.057 524.796L246.054 525.008C243.16 522.696 230.021 514.611 196.881 525.02C184.366 528.953 163.592 528.282 141.321 525.574C125.892 502.405 116.648 430.989 116.648 430.989L112.946 410.776L61.6613 424.156C61.6613 424.156 85.1898 430.622 89.032 438.425C95.0049 440.855 98.1172 493.812 99.2645 518.851C68.7194 512.932 43.6933 506.248 43.6933 506.248L25.4221 498.282L11.6996 552.455C11.6996 552.455 26.3786 534.019 39.4758 532.573C39.4758 532.573 104.611 570.546 153.205 563.383C172.089 560.466 190.282 570.12 205.537 573.233C218.898 576.02 232.408 577.727 245.972 578.343L245.94 595.409C245.94 595.409 299.967 593.267 335.565 580.382C338.158 589.021 340.247 595.257 340.992 595.702L347.464 592.055L383.048 645.048L454.229 611.72C454.229 611.72 464.771 607.186 459.644 596.263C454.517 585.339 442.627 597.618 442.627 597.618L389.945 618.742L368.226 582.263L367.382 580.836L372.052 578.196C372.052 578.196 371.911 577.391 371.657 575.995L383.706 587.657L384.632 580.877Z" fill="url(#paint7_linear)"/>
</g>
<path d="M342.356 536.005L326.348 518.085L353.564 484.036L369.573 501.956L342.356 536.005Z" fill="#FDA57D"/>
<path opacity="0.05" d="M352.267 485.533L340.256 500.562C341.484 504.838 343.511 508.731 346.187 511.952C348.863 515.173 352.12 517.641 355.717 519.172L368.286 503.453L352.267 485.533Z" fill="black"/>
<path d="M354.84 565.86L419.463 599.659L468.218 533.02C468.218 533.02 475.596 523.502 467.011 516.838C458.425 510.175 452.794 527.107 452.794 527.107L415.349 573.382L368.279 544.801L354.84 565.86Z" fill="#FDA57D"/>
<path d="M351.862 527.609L384.764 550.609L379.904 586.02L348.988 556.252L351.862 527.609Z" fill="#3AD29F"/>
<path d="M365.345 519.458C379.427 519.617 390.996 506.238 391.184 489.574C391.372 472.911 380.108 459.274 366.026 459.115C351.944 458.956 340.375 472.335 340.187 488.999C339.999 505.662 351.262 519.299 365.345 519.458Z" fill="#FDA57D"/>
<path d="M344.349 515.454L331.661 510.775L246.056 524.902L245.92 593.566C245.92 593.566 349.903 589.461 361.74 557.907L354.449 526.138L344.349 515.454Z" fill="#3AD29F"/>
<path opacity="0.05" d="M349.968 557.184L379.904 586.02L381.31 573.966L351.726 539.677L349.968 557.184Z" fill="black"/>
<path d="M246.677 525.665C246.677 525.665 235.334 513.467 198.22 525.118C161.106 536.769 49.2169 506.842 49.2169 506.842L45.0976 532.447C45.0976 532.447 108.445 569.385 155.707 562.372C174.109 559.639 191.764 569.015 206.601 572.005C219.644 574.736 232.834 576.396 246.078 576.974L246.677 525.665Z" fill="#4D8AF0"/>
<path d="M49.2171 506.83L31.4534 499.083L18.0979 551.759C18.0979 551.759 32.3014 533.815 45.0976 532.447L49.2171 506.83Z" fill="black"/>
<path d="M93.3138 440.942L120.177 433.699C120.177 433.699 131.904 524.369 150.948 532.131L103.771 531.598C103.771 531.598 100.929 444.04 93.3138 440.942Z" fill="#4D8AF0"/>
<path d="M120.177 433.698L116.569 414.041L66.6896 427C66.6896 427 89.62 433.294 93.3145 440.883L120.177 433.698Z" fill="black"/>
<path opacity="0.05" d="M370.139 454.449C363.386 453.747 356.411 454.211 350.107 457.187C343.803 460.163 338.208 465.887 335.833 473.419C333.457 480.951 334.832 490.249 339.943 495.515C341.163 496.88 342.732 497.729 344.406 497.928C347.115 498.088 349.431 495.764 351.534 493.744C355.482 489.978 359.82 486.82 364.441 484.348C368.375 482.242 373.163 480.714 376.833 483.377C378.578 484.649 379.796 486.682 381.226 488.411C383.306 490.911 385.877 492.765 388.712 493.81C391.547 494.854 394.559 495.057 397.482 494.4C400.405 493.743 403.148 492.246 405.47 490.043C407.791 487.839 409.62 484.996 410.793 481.765C409.762 484.552 400.716 480.588 399.356 479.711C395.205 477.042 393.089 473.132 390.993 468.349C386.819 458.96 378.99 455.328 370.139 454.449Z" fill="black"/>
<path d="M370.156 452.938C363.404 452.235 356.428 452.7 350.124 455.676C343.82 458.652 338.186 464.316 335.85 471.907C333.514 479.499 334.85 488.738 339.96 494.004C341.18 495.369 342.749 496.217 344.423 496.416C347.132 496.577 349.448 494.253 351.551 492.233C355.499 488.466 359.837 485.309 364.458 482.836C368.392 480.731 373.18 479.202 376.85 481.866C378.596 483.137 379.813 485.171 381.243 486.899C383.323 489.399 385.894 491.253 388.729 492.298C391.564 493.343 394.576 493.545 397.499 492.888C400.422 492.231 403.165 490.735 405.487 488.531C407.808 486.328 409.637 483.484 410.81 480.253C409.779 483.041 400.733 479.077 399.373 478.199C395.223 475.53 393.107 471.621 391.01 466.838C386.836 457.425 379.006 453.852 370.156 452.938Z" fill="black"/>
<path d="M359.29 486.718C359.806 484.293 359.394 482.085 358.371 481.786C357.348 481.487 356.101 483.21 355.585 485.635C355.069 488.06 355.48 490.268 356.503 490.567C357.526 490.866 358.774 489.143 359.29 486.718Z" fill="#FDA57D"/>
<path opacity="0.05" d="M344.664 590.299L345.499 591.549L364.802 580.783L363.978 579.404L344.664 590.299Z" fill="black"/>
<path opacity="0.05" d="M384.23 554.488L380.821 579.24L381.972 580.032L384.717 554.777L384.23 554.488Z" fill="black"/>
<path d="M284.064 489.865L268.765 489.692L267.385 611.902L282.684 612.075L284.064 489.865Z" fill="#E0E0E0"/>
<path d="M258.944 153.131L244.507 147.214L210.243 262.689L224.681 268.606L258.944 153.131Z" fill="#E0E0E0"/>
<path d="M278.811 503.387L273.711 503.33L277.043 208.203L282.069 208.579L278.811 503.387Z" fill="#E0E0E0"/>
<path d="M335.369 576.482L379.264 641.864L448.494 609.447C448.494 609.447 458.754 605.039 453.725 594.353C448.695 583.667 437.129 595.678 437.129 595.678L385.893 616.228L355.469 565.1L335.369 576.482Z" fill="#FDA57D"/>
<path d="M317.525 522.697C317.525 522.697 335.87 592.314 338.403 593.854L368.597 576.846C368.597 576.846 360.626 529.94 351.207 522.688C341.789 515.436 318.833 516.665 317.525 522.697Z" fill="#3AD29F"/>
<path opacity="0.05" d="M322.725 542.231C322.725 542.231 321.425 568.766 327.754 573.361L322.725 542.231Z" fill="black"/>
<g opacity="0.5">
<path opacity="0.5" d="M553.972 488.011L544.561 498.641L519.541 615.458L519.211 615.395L444.501 612.343L409.821 628.06L409.754 634.012L515.592 633.884L522.872 633.967L527.415 632.861L558.429 490.046L553.972 488.011Z" fill="url(#paint8_linear)"/>
</g>
<path d="M550.622 491.516L541.657 501.631L547.498 504.213L554.86 493.454L550.622 491.516Z" fill="#F5F5F5"/>
<path d="M541.657 501.631L547.498 504.213L521.011 630.461L514.082 630.383L541.657 501.631Z" fill="#F5F5F5"/>
<path d="M521.011 630.461L525.333 629.412L554.86 493.454L547.498 504.213L521.011 630.461Z" fill="#E0E0E0"/>
<path d="M413.388 624.841L413.324 630.509L514.082 630.383L515.791 624.297L413.388 624.841Z" fill="#E0E0E0"/>
<path d="M518.08 612.89L517.521 612.789L446.409 609.884L413.388 624.841L515.746 624.745" fill="#F5F5F5"/>
<path d="M476.43 620.592L478.51 613.53L517.507 613.97L515.414 622.214L476.43 620.592Z" fill="#E0E0E0"/>
<path d="M443.445 619.039L457.511 613.293L467.51 613.405L462.444 619.254L443.445 619.039Z" fill="#6C63FF"/>
<g opacity="0.5">
<path opacity="0.5" d="M354.184 641.652L336.185 641.448L333.999 835.113L351.998 835.317L354.184 641.652Z" fill="url(#paint9_linear)"/>
</g>
<g opacity="0.5">
<path opacity="0.5" d="M604.168 644.474L586.17 644.271L583.983 837.936L601.982 838.139L604.168 644.474Z" fill="url(#paint10_linear)"/>
</g>
<path d="M353.184 641.641L338.185 641.471L336.039 831.593L351.038 831.763L353.184 641.641Z" fill="#6C63FF"/>
<path d="M603.168 644.463L588.169 644.294L586.023 834.416L601.022 834.585L603.168 644.463Z" fill="#6C63FF"/>
<path d="M277.07 208.522L254.505 168.101L257.02 159.637L282.069 208.579L277.07 208.522Z" fill="#E0E0E0"/>
<path d="M390.704 500.595L387.402 497.943L381.713 507.795L385.015 510.447L390.704 500.595Z" fill="black"/>
<path d="M386.099 500.029L361.662 480.391L360.533 482.345L384.97 501.983L386.099 500.029Z" fill="black"/>
</g>
<defs>
<linearGradient id="paint0_linear" x1="260.078" y1="163.451" x2="261.891" y2="2.8511" gradientUnits="userSpaceOnUse">
<stop stop-color="#808080" stop-opacity="0.25"/>
<stop offset="0.54" stop-color="#808080" stop-opacity="0.12"/>
<stop offset="1" stop-color="#808080" stop-opacity="0.1"/>
</linearGradient>
<linearGradient id="paint1_linear" x1="152816" y1="66739" x2="153080" y2="43565.5" gradientUnits="userSpaceOnUse">
<stop stop-color="#808080" stop-opacity="0.25"/>
<stop offset="0.54" stop-color="#808080" stop-opacity="0.12"/>
<stop offset="1" stop-color="#808080" stop-opacity="0.1"/>
</linearGradient>
<linearGradient id="paint2_linear" x1="252.549" y1="12394.8" x2="276.069" y2="10311.8" gradientUnits="userSpaceOnUse">
<stop stop-color="#808080" stop-opacity="0.25"/>
<stop offset="0.54" stop-color="#808080" stop-opacity="0.12"/>
<stop offset="1" stop-color="#808080" stop-opacity="0.1"/>
</linearGradient>
<linearGradient id="paint3_linear" x1="158635" y1="158358" x2="159901" y2="46213.9" gradientUnits="userSpaceOnUse">
<stop stop-color="#808080" stop-opacity="0.25"/>
<stop offset="0.54" stop-color="#808080" stop-opacity="0.12"/>
<stop offset="1" stop-color="#808080" stop-opacity="0.1"/>
</linearGradient>
<linearGradient id="paint4_linear" x1="13427.4" y1="17520" x2="13458.2" y2="14791.4" gradientUnits="userSpaceOnUse">
<stop stop-color="#808080" stop-opacity="0.25"/>
<stop offset="0.54" stop-color="#808080" stop-opacity="0.12"/>
<stop offset="1" stop-color="#808080" stop-opacity="0.1"/>
</linearGradient>
<linearGradient id="paint5_linear" x1="17246.6" y1="27391.1" x2="17312.9" y2="21515.8" gradientUnits="userSpaceOnUse">
<stop stop-color="#808080" stop-opacity="0.25"/>
<stop offset="0.54" stop-color="#808080" stop-opacity="0.12"/>
<stop offset="1" stop-color="#808080" stop-opacity="0.1"/>
</linearGradient>
<linearGradient id="paint6_linear" x1="141862" y1="12485" x2="141865" y2="12182.6" gradientUnits="userSpaceOnUse">
<stop stop-color="#808080" stop-opacity="0.25"/>
<stop offset="0.54" stop-color="#808080" stop-opacity="0.12"/>
<stop offset="1" stop-color="#808080" stop-opacity="0.1"/>
</linearGradient>
<linearGradient id="paint7_linear" x1="251613" y1="155765" x2="252124" y2="110514" gradientUnits="userSpaceOnUse">
<stop stop-color="#808080" stop-opacity="0.25"/>
<stop offset="0.54" stop-color="#808080" stop-opacity="0.12"/>
<stop offset="1" stop-color="#808080" stop-opacity="0.1"/>
</linearGradient>
<linearGradient id="paint8_linear" x1="70247.7" y1="79961.4" x2="70456.1" y2="61510.1" gradientUnits="userSpaceOnUse">
<stop stop-color="#808080" stop-opacity="0.25"/>
<stop offset="0.54" stop-color="#808080" stop-opacity="0.12"/>
<stop offset="1" stop-color="#808080" stop-opacity="0.1"/>
</linearGradient>
<linearGradient id="paint9_linear" x1="4970.69" y1="137051" x2="5329.32" y2="105290" gradientUnits="userSpaceOnUse">
<stop stop-color="#808080" stop-opacity="0.25"/>
<stop offset="0.54" stop-color="#808080" stop-opacity="0.12"/>
<stop offset="1" stop-color="#808080" stop-opacity="0.1"/>
</linearGradient>
<linearGradient id="paint10_linear" x1="9720.39" y1="137105" x2="10079" y2="105344" gradientUnits="userSpaceOnUse">
<stop stop-color="#808080" stop-opacity="0.25"/>
<stop offset="0.54" stop-color="#808080" stop-opacity="0.12"/>
<stop offset="1" stop-color="#808080" stop-opacity="0.1"/>
</linearGradient>
<clipPath id="clip0">
<rect width="618.02" height="831.395" fill="white" transform="translate(9.38696) rotate(0.646917)"/>
</clipPath>
</defs>
</svg>
