<svg width="1440" height="664" viewBox="0 0 1440 664" fill="none" xmlns="http://www.w3.org/2000/svg">
<g clip-path="url(#clip0)">
<path d="M1102.42 592.008C1192.07 592.008 1264.75 581.264 1264.75 568.01C1264.75 554.757 1192.07 544.013 1102.42 544.013C1012.76 544.013 940.075 554.757 940.075 568.01C940.075 581.264 1012.76 592.008 1102.42 592.008Z" stroke="#444053" stroke-miterlimit="10"/>
<path d="M489.79 376.85C490.267 377.74 490.806 378.611 491.407 379.46V379.57C491.407 379.57 499.096 400.478 502.696 404.867C503.742 406.137 504.924 407.517 506.092 408.867C505.861 409.86 505.861 410.874 506.092 411.867C507.179 416.526 508.497 422.935 507.899 424.345C507.301 425.755 508.619 429.265 506.54 430.485C504.462 431.704 502.329 433.824 508.7 436.634C508.7 436.634 509.896 439.004 508.823 439.534C508.7 439.594 508.823 439.724 509.122 439.894C507.369 443.713 504.802 449.893 506.405 450.332C507.288 450.582 509.678 449.663 512.3 448.423C512.368 448.673 512.423 448.943 512.491 449.213C512.908 451.271 513.553 453.301 514.42 455.282C515.588 457.192 516.756 460.411 516.131 461.471C515.506 462.531 517.843 464.891 517.3 465.821C516.756 466.751 519.106 469.77 519.106 469.77C519.106 469.77 521.443 475.63 521.348 477.61C521.253 479.589 523.875 492.358 523.875 492.358C523.875 492.358 521.158 498.947 522.516 500.857C523.875 502.767 524.758 509.356 522.516 511.796C520.275 514.236 517.463 519.625 518.373 521.075C519.283 522.525 517.109 540.443 522.598 547.822C523.301 550.568 523.813 553.338 524.133 556.121C524.133 558.121 528.453 563.431 528.453 563.431C528.453 563.431 525.845 571.43 532.243 572.78C532.684 572.881 533.14 572.945 533.602 572.97C533.797 573.844 533.636 574.742 533.14 575.549C532.046 576.663 531.27 577.929 530.857 579.269V579.269C530.763 579.521 530.807 579.79 530.98 580.019C531.7 580.609 533.697 588.518 533.697 588.518C533.697 588.518 536.577 597.407 552.43 595.237C552.43 595.237 563.149 594.777 562.252 592.008C561.957 591.093 561.567 590.198 561.084 589.328C560.706 588.765 560.371 588.188 560.079 587.598C559.902 586.938 557.647 585.088 557.47 583.838C557.294 582.589 555.854 580.149 556.112 579.359C556.37 578.569 553.68 572.91 553.49 571.65C553.27 570.773 552.928 569.915 552.471 569.09L553.042 568.89C553.042 568.89 554.482 562.961 553.232 560.791C551.982 558.621 547.01 555.791 547.01 555.791C547.01 555.791 547.73 541.233 546.833 539.253C545.937 537.273 547.282 529.774 547.282 529.774C547.282 529.774 550.338 519.165 550.162 516.775C550.059 515.296 550.364 513.817 551.058 512.426C551.058 512.426 552.96 496.818 554.21 494.838C555.46 492.858 556.927 473.5 556.927 473.5L557.769 475.28C558.953 477.951 560.359 480.566 561.98 483.109C562.673 483.909 564.697 486.469 566.436 488.608L569.004 491.808C569.004 491.808 570.172 494.908 569.357 496.808C568.542 498.707 577.739 508.986 577.739 508.986C577.147 509.844 576.84 510.794 576.842 511.756C577.1 512.756 574.044 515.906 574.044 515.906C574.044 515.906 572.876 518.735 573.596 519.725C574.316 520.715 572.427 526.574 572.427 526.574C572.427 526.574 569.357 539.483 568.637 541.003C567.917 542.523 569.004 552.922 569.004 552.922C569.004 552.922 563.352 563.571 565.974 567.11C566.083 568.42 566.097 570.42 565.404 571.23C564.466 572.31 564.738 576.299 564.833 577.399C564.833 577.589 564.833 577.689 564.833 577.689C564.833 577.689 561.763 580.689 565.635 581.909C569.506 583.129 582.67 584.008 582.67 584.008C582.67 584.008 595.182 586.648 601.214 587.368C607.245 588.088 619.866 587.828 620.762 585.128C621.082 584.29 621.192 583.416 621.088 582.549C621.007 582.001 620.736 581.477 620.301 581.029C619.865 580.581 619.28 580.223 618.602 579.989C614.893 578.903 611.101 577.978 607.245 577.219C607.245 577.219 601.295 576.219 600.752 574.319C600.208 572.42 591.745 567.14 591.745 567.14C591.745 567.14 591.65 566.77 591.473 566.27H591.745L591.337 565.97C590.916 564.97 590.237 563.651 589.408 563.901C589.279 563.722 589.2 563.525 589.176 563.323C589.153 563.121 589.185 562.918 589.272 562.725C589.358 562.533 589.497 562.355 589.679 562.203C589.861 562.051 590.083 561.928 590.332 561.841C593.579 560.531 595.562 556.381 594.652 551.902C593.742 547.422 593.579 548.212 595.467 545.642C596.639 543.7 597.107 541.568 596.826 539.453L601.811 525.775C602.592 524.094 603.076 522.347 603.251 520.575C603.336 519.181 603.827 517.817 604.691 516.576C604.691 516.576 606.946 507.087 608.93 504.917C610.913 502.747 607.571 495.098 607.571 495.098C607.571 495.098 604.515 483.249 604.691 477.84C604.868 472.43 596.758 453.672 596.758 453.672C595.717 452.455 595.276 451.011 595.508 449.583C595.671 448.463 594.72 446.643 593.647 445.013L593.307 444.503C593.721 444.111 594.222 443.773 594.788 443.503C597.016 442.503 598.062 439.874 598.075 438.024L567.36 384.739C567.36 384.579 581.583 363.192 581.543 363.032C580.7 359.522 572.658 350.213 572.658 350.213C572.581 350.096 572.464 349.996 572.319 349.923C570.512 349.313 564.398 346.763 564.398 346.763C559.603 342.404 555.106 341.504 552.172 341.534C551.249 341.526 550.331 341.63 549.455 341.844C549.142 341.915 548.838 342.006 548.545 342.114L548.409 342.984C548.159 340.972 548.375 338.943 549.048 336.984C549.115 336.814 549.183 336.634 549.238 336.465C549.686 336.465 550.134 336.465 550.596 336.465C553.472 336.471 556.321 336.061 558.982 335.257C561.642 334.453 564.061 333.271 566.101 331.779C568.141 330.287 569.761 328.514 570.87 326.561C571.979 324.608 572.554 322.513 572.563 320.396C572.562 318.892 572.279 317.394 571.721 315.947L571.612 315.717L572.291 315.497C575.008 314.757 578.418 316.017 580.619 314.677C581.416 314.095 581.988 313.366 582.276 312.567C582.886 311.497 583.293 310.369 583.485 309.217C583.485 309.017 583.485 308.817 583.485 308.617C583.492 308.558 583.492 308.497 583.485 308.437C583.492 308.364 583.492 308.291 583.485 308.217C583.485 308.127 583.485 308.038 583.485 307.948C583.485 307.858 583.485 307.948 583.485 307.948C583.362 307.213 582.957 306.519 582.317 305.948C580.877 304.708 578.472 304.408 576.652 303.498C575.164 302.649 573.929 301.584 573.025 300.368C572.118 299.16 570.927 298.08 569.506 297.179C568.785 296.732 567.911 296.44 566.98 296.332C566.048 296.225 565.095 296.307 564.222 296.569C563.69 296.837 563.103 297.039 562.483 297.169C561.809 297.175 561.146 297.044 560.568 296.789C554.319 294.639 546.983 295.019 540.19 295.659C537.43 295.82 534.721 296.3 532.162 297.079C530.883 297.466 529.734 298.054 528.795 298.802C527.857 299.55 527.151 300.439 526.728 301.408C526.171 302.958 526.592 304.638 525.926 306.168C525.464 307.168 524.568 308.088 523.997 309.097C523.72 309.627 523.546 310.182 523.481 310.747V310.747C523.481 310.747 523.481 310.857 523.481 310.907C523.25 313.177 524.459 315.567 525.043 317.906C525.845 321.096 525.437 324.566 527.298 327.585C527.484 327.956 527.721 328.311 528.005 328.645C527.352 329.645 526.646 330.705 525.967 331.695C524.962 331.485 521.891 330.985 521.783 332.965C521.761 334.574 521.251 336.159 520.288 337.604C520.145 337.688 519.996 337.764 519.84 337.834C519.674 337.89 519.536 337.983 519.446 338.1C519.356 338.216 519.318 338.351 519.337 338.484V338.484L518.984 338.684C518.828 338.692 518.678 338.73 518.549 338.794C518.359 338.554 517.734 338.534 515.751 340.274C513.111 342.295 510.075 344.014 506.744 345.374C506.744 345.374 493.404 352.223 492.684 355.373C491.964 358.522 487.508 372.281 489.79 376.85ZM548.368 343.434C548.368 343.434 548.368 343.364 548.368 343.324L548.531 343.384L548.368 343.434ZM584.613 567.41C584.252 567.523 583.864 567.581 583.472 567.58L584.613 567.41Z" fill="url(#paint0_linear)"/>
<path d="M553.897 595.267C538.234 597.427 535.381 588.588 535.381 588.588C535.381 588.588 533.425 580.729 532.664 580.139C532.492 579.91 532.448 579.641 532.542 579.389V579.389C532.951 578.057 533.718 576.8 534.797 575.689C535.775 574.839 534.974 571.3 534.974 571.3L553.123 567.9C553.899 569.161 554.495 570.478 554.903 571.83C555.093 573.07 557.755 578.709 557.484 579.489C557.212 580.269 558.652 582.699 558.842 583.948C559.032 585.198 561.247 587.028 561.423 587.678C561.697 588.27 562.023 588.848 562.401 589.408C562.886 590.269 563.272 591.159 563.556 592.068C564.48 594.807 553.897 595.267 553.897 595.267Z" fill="#444053"/>
<path opacity="0.1" d="M553.897 595.267C538.234 597.427 535.381 588.588 535.381 588.588C535.381 588.588 533.425 580.729 532.664 580.139C532.492 579.91 532.448 579.641 532.542 579.389L536.305 587.388C536.305 587.388 539.429 592.178 550.99 591.448C557.579 591.048 560.812 590.148 562.388 589.448C562.872 590.309 563.258 591.199 563.543 592.108C564.48 594.807 553.897 595.267 553.897 595.267Z" fill="black"/>
<path opacity="0.1" d="M541.698 582.819C541.698 582.819 545.624 582.889 545.882 580.529L541.698 582.819Z" fill="black"/>
<path d="M609.786 505.397C607.829 507.556 605.602 516.985 605.602 516.985C604.773 518.234 604.31 519.597 604.243 520.985C604.099 522.748 603.642 524.489 602.885 526.164L597.736 539.723C598.009 541.825 597.542 543.943 596.377 545.872C594.516 548.432 594.693 547.642 595.576 552.102C596.459 556.561 594.516 560.681 591.31 561.991C588.104 563.301 592.737 566.38 592.737 566.38C592.737 566.38 572.264 570.44 567.985 567.95C563.706 565.46 570.213 553.152 570.213 553.152C570.213 553.152 569.153 542.803 569.86 541.293C570.566 539.783 573.595 526.944 573.595 526.944C573.595 526.944 575.47 521.115 574.75 520.135C574.03 519.155 575.198 516.335 575.198 516.335C575.198 516.335 578.228 513.186 577.915 512.206C577.921 511.251 578.228 510.309 578.812 509.456C578.812 509.456 569.737 499.237 570.525 497.338C571.313 495.438 570.172 492.338 570.172 492.338C570.172 492.338 569.031 490.888 567.645 489.158C565.961 487.029 563.923 484.489 563.23 483.689C561.639 481.159 560.256 478.561 559.087 475.91L558.245 474.13C558.245 474.13 556.886 493.388 555.528 495.348C554.169 497.308 552.417 512.846 552.417 512.846C551.724 514.226 551.419 515.696 551.52 517.165C551.697 519.585 548.667 530.164 548.667 530.164C548.667 530.164 547.309 537.633 548.232 539.603C549.156 541.573 548.409 556.041 548.409 556.041C548.409 556.041 553.3 558.861 554.549 561.041C555.799 563.221 554.373 569.1 554.373 569.1C554.373 569.1 540.136 574.339 533.805 572.96C527.475 571.58 530.069 563.661 530.069 563.661C530.069 563.661 525.804 558.421 525.804 556.391C525.487 553.621 524.979 550.864 524.282 548.132C518.848 540.793 520.995 522.985 520.112 521.535C519.229 520.085 521.973 514.726 524.187 512.306C526.401 509.886 525.546 503.307 524.187 501.427C522.829 499.547 525.546 492.978 525.546 492.978C525.546 492.978 522.964 480.269 523.06 478.31C523.155 476.35 520.832 470.51 520.832 470.51C520.832 470.51 518.522 467.511 519.052 466.581C519.582 465.651 517.272 463.301 517.897 462.261C518.522 461.221 517.354 458.002 516.199 456.102C515.354 454.142 514.718 452.136 514.297 450.103C513.754 447.843 513.36 445.853 513.36 445.853L528.045 437.144L564.725 430.065L578.635 426.735L592.071 442.323C592.071 442.323 593.429 443.953 594.693 445.833C595.752 447.453 596.69 449.263 596.527 450.383C596.303 451.801 596.744 453.233 597.777 454.442C597.777 454.442 605.778 473.11 605.602 478.44C605.425 483.769 608.454 495.608 608.454 495.608C608.454 495.608 611.742 503.237 609.786 505.397Z" fill="#3F3D56"/>
<path opacity="0.1" d="M527.38 515.156C527.38 515.156 543.043 510.246 547.662 513.716C552.281 517.186 527.38 515.156 527.38 515.156Z" fill="black"/>
<path opacity="0.1" d="M536.183 517.115C536.183 517.115 520.302 523.725 525.736 524.785C531.17 525.845 536.183 517.115 536.183 517.115Z" fill="black"/>
<path opacity="0.1" d="M583.526 511.426C583.526 511.426 576.734 511.746 579.342 512.736C581.95 513.726 583.526 511.426 583.526 511.426Z" fill="black"/>
<path opacity="0.1" d="M591.989 512.926C591.894 513.256 572.319 517.926 576.149 520.005C579.98 522.085 591.989 512.926 591.989 512.926Z" fill="black"/>
<path opacity="0.1" d="M529.689 553.012C532.623 552.692 549.007 547.122 542.595 551.122C540.879 552.269 538.772 553.052 536.498 553.385C534.225 553.717 531.871 553.589 529.689 553.012Z" fill="black"/>
<path opacity="0.1" d="M537.786 557.401C537.786 557.401 539.212 561.471 544.646 560.941C550.08 560.411 537.786 557.401 537.786 557.401Z" fill="black"/>
<path opacity="0.1" d="M533.248 565.66C534.227 565.46 545.882 561.531 546.154 563.371C546.426 565.21 535.028 568.37 534.145 567.43C533.633 566.911 533.323 566.299 533.248 565.66V565.66Z" fill="black"/>
<path opacity="0.1" d="M570.987 560.941C572.346 560.881 585.754 557.731 588.43 560.551L570.987 560.941Z" fill="black"/>
<path opacity="0.1" d="M583.091 562.781C583.091 562.781 585.401 561.271 587.71 562.061C590.019 562.851 583.091 562.781 583.091 562.781Z" fill="black"/>
<path opacity="0.1" d="M553.544 579.019C553.689 579.577 554.051 580.091 554.587 580.5C555.122 580.908 555.808 581.193 556.56 581.319L553.544 579.019Z" fill="black"/>
<path d="M621.441 585.178C620.558 587.868 608.087 588.128 602.137 587.408C596.187 586.688 583.798 584.068 583.798 584.068C583.798 584.068 570.81 583.149 566.98 581.969C563.149 580.789 566.178 577.779 566.178 577.779C566.178 577.779 566.178 577.679 566.178 577.499C566.083 576.399 565.825 572.43 566.735 571.36C567.808 570.11 567.183 566.05 567.183 566.05C567.183 566.05 585.604 568.67 585.958 567.43C586.311 566.19 589.164 564.431 590.495 564.021C591.826 563.611 592.818 567.3 592.818 567.3C592.818 567.3 601.186 572.54 601.716 574.439C602.246 576.339 608.115 577.319 608.115 577.319C611.926 578.071 615.673 578.989 619.336 580.069C620.008 580.301 620.587 580.657 621.017 581.102C621.448 581.546 621.716 582.065 621.795 582.609C621.89 583.474 621.77 584.345 621.441 585.178V585.178Z" fill="#444053"/>
<path opacity="0.1" d="M621.442 585.178C620.559 587.868 608.088 588.128 602.137 587.408C596.187 586.688 583.798 584.068 583.798 584.068C583.798 584.068 570.81 583.149 566.98 581.969C563.149 580.789 566.178 577.779 566.178 577.779C566.178 577.779 566.178 577.679 566.178 577.499L584.803 580.499C584.803 580.499 593.973 583.378 599.841 583.378C604.977 583.378 616.456 584.928 621.795 582.579C621.895 583.454 621.776 584.335 621.442 585.178V585.178Z" fill="black"/>
<path opacity="0.1" d="M596.255 574.829C596.255 574.829 595.372 579.149 591.813 580.599L596.255 574.829Z" fill="black"/>
<path d="M653.298 415.606C648 417.086 635.774 417.246 630.34 417.246C628.682 417.246 627.623 417.246 627.623 417.246L624.131 412.007L627.623 407.637C627.623 407.637 630.829 406.987 635.094 406.417C641.384 405.587 650.038 404.937 654.113 406.807C660.96 409.937 660.227 413.736 653.298 415.606Z" fill="#A1616A"/>
<path d="M572.373 352.903L573.922 351.593C573.922 351.593 581.869 360.852 582.697 364.342C583.526 367.831 584.599 371.851 584.599 371.851C584.599 371.851 586.61 376.39 587.928 378.4C589.05 379.923 589.925 381.537 590.536 383.21C590.645 384.079 590.06 385.999 592.546 387.209C595.032 388.419 595.63 391.749 595.63 391.749C595.63 391.749 604.651 398.208 609.405 398.388C614.16 398.568 627.786 400.308 627.324 402.048C626.862 403.787 633.016 404.847 635.475 405.287C637.934 405.727 619.472 410.977 630.34 417.736C630.34 417.736 623.452 418.736 622.746 420.006C622.039 421.276 614.799 419.306 614.799 419.306C614.799 419.306 613.25 416.596 607.911 416.426C602.572 416.256 599.842 414.506 599.842 414.246C599.842 413.986 594.503 411.797 591.541 411.187C588.58 410.577 584.654 410.317 584.531 409.697C584.409 409.077 566.735 352.933 566.735 352.933L572.373 352.903Z" fill="#009688"/>
<path opacity="0.05" d="M572.373 353.123L573.922 351.813C573.922 351.813 581.869 361.072 582.697 364.572C583.526 368.071 584.599 372.081 584.599 372.081C584.599 372.081 586.61 376.62 587.928 378.63C589.047 380.15 589.922 381.761 590.536 383.43C590.645 384.31 590.06 386.229 592.546 387.429C595.032 388.629 595.63 391.969 595.63 391.969C595.63 391.969 604.651 398.438 609.405 398.608C614.16 398.778 627.786 400.528 627.324 402.278C626.862 404.027 633.016 405.077 635.475 405.507C637.934 405.937 619.472 411.207 630.34 417.936C630.34 417.936 623.452 418.936 622.746 420.206C622.039 421.476 614.799 419.506 614.799 419.506C614.799 419.506 613.25 416.796 607.911 416.626C602.572 416.456 599.842 414.706 599.842 414.436C599.842 414.166 594.503 411.997 591.541 411.387C588.58 410.777 584.654 410.507 584.531 409.897C584.409 409.287 566.735 353.123 566.735 353.123H572.373Z" fill="black"/>
<path d="M753.962 590.498C843.623 590.498 916.302 601.247 916.302 614.495C916.302 627.744 843.623 638.493 753.962 638.493C664.302 638.493 591.623 627.754 591.623 614.495" stroke="#444053" stroke-miterlimit="10"/>
<path d="M720.602 95.9472L697.712 93.0886L668.835 218.355L691.724 221.213L720.602 95.9472Z" fill="#444053"/>
<path d="M747.632 598.687L752.713 625.384L757.06 597.627L747.632 598.687Z" fill="#D0D2D5"/>
<path d="M584.423 583.738V600.297L589.503 614.705H593.13L597.491 599.227L599.665 580.539L584.423 583.738Z" fill="#3F3D56"/>
<path d="M574.084 519.145L584.952 520.745C584.952 520.745 572.631 545.832 581.325 551.172H567.564C567.564 551.172 562.483 531.954 574.084 519.145Z" fill="#D0D2D5"/>
<path opacity="0.1" d="M574.084 519.145L584.952 520.745C584.952 520.745 572.631 545.832 581.325 551.172H567.564C567.564 551.172 562.483 531.954 574.084 519.145Z" fill="black"/>
<path d="M646.805 217.507L611.986 379.8C611.986 379.8 560.5 552.782 580.075 586.948H604.746L678.729 254.883L646.805 217.507Z" fill="#D0D2D5"/>
<path d="M735.106 197.349L761.801 360.472C761.801 360.472 781.241 568.28 759.953 601.886H738.924L701.348 233.835L735.106 197.349Z" fill="#D0D2D5"/>
<path d="M643.558 158.213C645.35 153.782 649.079 149.911 654.166 147.199C659.253 144.487 665.413 143.087 671.692 143.215C693.17 143.615 726.371 146.495 743.692 159.553C770.536 179.841 725.556 248.174 725.556 248.174C725.556 248.174 683.443 305.298 645.052 232.695C644.998 232.755 629.076 193.88 643.558 158.213Z" fill="#444053"/>
<path opacity="0.1" d="M643.558 158.213C645.35 153.782 649.079 149.911 654.166 147.199C659.253 144.487 665.413 143.087 671.692 143.215C693.17 143.615 726.371 146.495 743.692 159.553C770.536 179.841 725.556 248.174 725.556 248.174C725.556 248.174 683.443 305.298 645.052 232.695C644.998 232.755 629.076 193.88 643.558 158.213Z" fill="black"/>
<path d="M658.324 172.092C659.615 168.944 662.276 166.196 665.896 164.27C669.517 162.344 673.897 161.348 678.362 161.433C693.645 161.723 717.283 163.773 729.577 173.072C748.691 187.51 716.672 236.165 716.672 236.165C716.672 236.165 686.785 276.831 659.343 225.166C659.343 225.136 648 197.489 658.324 172.092Z" fill="#444053"/>
<path d="M732.675 587.838C732.906 590.418 733.449 593.127 735.664 595.147C739.331 598.487 746.002 598.747 751.707 599.797C756.088 600.719 760.337 601.952 764.396 603.476L776.744 607.776C773.578 607.911 770.456 608.389 767.479 609.196C765.89 609.626 764.151 610.336 763.92 611.556C763.89 612.064 764.07 612.568 764.436 613C764.802 613.432 765.337 613.772 765.971 613.975C767.262 614.366 768.652 614.547 770.047 614.505C777.402 614.657 784.761 614.373 792.054 613.655L792.924 613.565C796.673 614.932 800.405 616.328 804.118 617.755C805.666 618.355 807.528 617.755 808.832 616.915C810.424 615.878 811.83 614.695 813.016 613.395C813.233 613.675 813.451 613.945 813.627 614.215C814.823 615.905 815.95 618.115 814.239 619.555C812.88 620.675 810.313 620.865 809.538 622.224C809.327 622.716 809.336 623.245 809.563 623.732C809.791 624.22 810.225 624.641 810.802 624.934C811.983 625.508 813.343 625.852 814.755 625.934C818.115 626.274 821.524 626.254 824.876 625.874C826.692 625.78 828.414 625.242 829.766 624.344C830.922 623.186 831.533 621.782 831.505 620.345L833.828 600.917C834.04 599.994 833.947 599.047 833.556 598.157C832.633 596.507 829.956 595.817 827.538 595.527H827.28C829.291 595.527 831.356 595.457 833.529 595.457C835.423 595.547 837.322 595.371 839.126 594.937C842.577 593.937 844.438 591.268 845.919 588.808C848.636 584.488 851.76 579.809 851.353 575.009L850.293 574.659C850.198 569.55 847.291 564.78 846.217 559.791C847.397 558.451 848.024 556.888 848.024 555.291C847.883 553.536 847.365 551.808 846.489 550.172C842.183 540.753 837.876 531.304 832.116 522.305C828.389 516.312 823.837 510.616 818.531 505.307C817.146 503.974 815.706 502.64 814.211 501.307C813.125 500.387 810.693 499.087 810.245 497.917C809.796 496.748 810.747 495.608 810.245 494.408C810.116 494.095 809.952 493.791 809.756 493.498C812.934 490.398 812.038 485.919 810.924 482.059L809.565 477.25C809.275 475.923 808.706 474.638 807.881 473.44C807.006 472.413 805.91 471.497 804.634 470.73C797.95 466.291 789.691 463.341 782.178 459.661C774.231 455.772 767.126 451.042 760.008 446.373C757.834 444.953 755.104 443.423 752.291 444.023C749.479 444.623 748.311 446.863 748.216 448.903C748.19 450.317 748.57 451.72 749.331 453.019C750.092 454.318 751.216 455.484 752.631 456.442C757.549 459.751 764.98 460.021 770.835 462.361C772.847 463.221 774.76 464.201 776.554 465.291L793.562 475.12C794.852 475.688 795.799 476.596 796.211 477.66C796.278 478.301 796.139 478.945 795.804 479.539C795.165 480.979 794.079 482.789 793.277 484.619L791.919 483.899C789.103 482.35 786.086 481.01 782.912 479.899C778.701 478.633 774.253 477.848 769.721 477.57C759.682 476.74 750.702 477.88 744.562 484.049C743.289 485.459 741.672 486.682 739.793 487.659C738.401 488.135 737.1 488.744 735.922 489.468C732.77 492.038 734.563 496.298 737.525 498.467C740.031 500.182 743.119 501.366 746.463 501.897C748.307 504.925 751.599 507.348 755.712 508.705C759.825 510.062 764.473 510.258 768.77 509.256C768.981 510.544 769.022 511.843 768.892 513.136C768.827 513.801 768.965 514.469 769.297 515.091C769.628 515.712 770.145 516.27 770.808 516.725C771.523 517.083 772.312 517.354 773.144 517.525C776.15 518.326 778.996 519.419 781.608 520.775C778.54 523.221 776.01 526.004 774.109 529.024C772.94 531.029 772.453 533.213 772.69 535.387C772.926 537.562 773.88 539.661 775.467 541.503L775.549 541.583C775.32 542.206 774.897 542.781 774.313 543.263C773.484 543.739 772.438 543.961 771.393 543.882C770.347 543.804 769.383 543.432 768.702 542.843C767.537 541.829 766.551 540.71 765.768 539.513C764.424 537.897 762.647 536.5 760.544 535.406C758.442 534.313 756.059 533.547 753.541 533.154C751.68 532.803 749.72 532.862 747.903 533.324C747.01 533.56 746.227 533.979 745.647 534.531C745.067 535.084 744.714 535.748 744.63 536.443C744.63 537.953 746.124 539.203 747.591 540.273C752.092 543.709 757.105 546.762 762.534 549.372C764.014 550.046 765.542 550.66 767.113 551.212C764.396 550.792 761.715 550.382 759.07 549.982C755.365 549.302 751.537 549.056 747.727 549.252C745.827 549.361 743.985 549.785 742.338 550.491C740.692 551.198 739.283 552.169 738.217 553.332C736.721 555.425 736.403 557.867 737.334 560.131C738.276 562.376 739.683 564.501 741.505 566.43C744.363 569.967 747.87 573.197 751.925 576.029C748.528 576.779 745.132 577.599 741.817 578.499C738.503 579.399 735.025 580.499 733.503 582.739C732.611 584.353 732.325 586.114 732.675 587.838ZM782.681 553.842H782.803C783.525 553.601 784.142 553.217 784.583 552.732C786.648 550.698 788.111 548.368 788.876 545.892C789.665 545.814 790.44 545.67 791.185 545.462C790.677 545.818 790.273 546.246 789.998 546.721C789.722 547.195 789.581 547.706 789.582 548.222L797.244 550.982C797.797 551.135 798.272 551.411 798.602 551.772C798.813 552.145 798.865 552.556 798.752 552.952C798.534 554.242 798.195 555.531 797.977 556.811C795.682 556.311 793.426 555.911 791.402 555.511C788.522 554.931 785.602 554.392 782.681 553.852V553.842Z" fill="url(#paint1_linear)"/>
<path d="M784.107 500.727C786.034 501.082 788.039 501.145 790.001 500.913C791.962 500.681 793.839 500.159 795.519 499.377C796.19 499.03 796.94 498.773 797.733 498.617C798.436 498.572 799.145 498.649 799.801 498.841C800.457 499.034 801.042 499.338 801.509 499.727C804.77 502.117 805.15 506.057 803.466 509.206C801.781 512.356 798.398 514.836 794.853 516.986C791.989 518.722 788.961 520.305 785.792 521.725C784.919 520.219 783.648 518.855 782.052 517.714C780.457 516.573 778.57 515.676 776.5 515.076C772.777 514.016 770.06 511.176 767.928 508.696C766.338 506.857 764.925 506.937 766.352 505.037C767.962 503.213 769.859 501.535 772.003 500.037C773.171 499.127 774.192 498.12 775.046 497.038C775.997 495.778 775.78 494.958 777.247 495.958C778.211 496.618 778.605 498.048 779.719 498.817C780.955 499.701 782.459 500.356 784.107 500.727V500.727Z" fill="#FABDBD"/>
<path d="M795.777 481.229C796.094 480.642 796.229 480.01 796.171 479.379C795.764 478.333 794.838 477.437 793.576 476.87L776.961 467.171C775.218 466.095 773.355 465.128 771.392 464.281C765.659 461.971 758.418 461.701 753.609 458.442C752.226 457.489 751.128 456.334 750.384 455.052C749.64 453.769 749.267 452.387 749.289 450.992C749.289 448.993 750.647 446.733 753.215 446.173C755.783 445.613 758.649 447.093 760.768 448.503C767.71 453.102 774.638 457.772 782.395 461.611C789.731 465.251 797.814 468.151 804.349 472.54C805.54 473.287 806.562 474.167 807.378 475.15C808.177 476.34 808.731 477.61 809.022 478.919L810.38 483.659C811.522 487.659 812.445 492.308 808.791 495.378C808.259 495.869 807.587 496.269 806.821 496.547C806.055 496.825 805.216 496.976 804.362 496.988C803.157 496.879 801.995 496.586 800.952 496.128C798.235 495.128 793.318 494.128 792.489 491.628C791.429 488.498 794.486 484.129 795.777 481.229Z" fill="#FABDBD"/>
<path d="M769.272 543.723C768.139 542.72 767.176 541.618 766.406 540.443C765.105 538.853 763.375 537.476 761.324 536.396C759.273 535.316 756.943 534.556 754.478 534.164C752.684 533.83 750.797 533.886 749.044 534.324C748.168 534.561 747.401 534.979 746.836 535.526C746.27 536.073 745.929 536.728 745.852 537.413C745.852 538.893 747.306 540.133 748.732 541.183C753.126 544.58 758.03 547.599 763.349 550.182C768.676 552.753 774.786 554.313 781.132 554.722C781.771 554.779 782.42 554.735 783.034 554.592C783.738 554.352 784.339 553.975 784.773 553.502C788.142 550.322 789.31 546.193 790.207 542.223C789.881 543.653 778.945 540.313 777.709 540.743C775.888 541.373 776.065 543.253 774.747 544.153C773.94 544.624 772.914 544.843 771.89 544.762C770.866 544.682 769.926 544.309 769.272 543.723V543.723Z" fill="#FABDBD"/>
<path d="M848.948 575.139C849.01 575.64 848.878 576.142 848.568 576.589C847.82 577.449 846.136 577.459 844.764 577.309C841.595 576.916 838.468 576.361 835.404 575.649L807.514 569.72C807.071 569.657 806.658 569.509 806.318 569.29C806.024 569.034 805.831 568.722 805.762 568.39C804.792 565.445 804.585 562.392 805.15 559.391C805.184 558.958 805.376 558.54 805.707 558.181C806.335 557.755 807.163 557.526 808.017 557.541C812.385 557.215 816.776 557.068 821.167 557.101C824.016 557.19 826.87 557.143 829.712 556.961C833.38 556.641 837.605 555.092 841.286 555.332C844.479 555.532 844.343 557.331 844.669 559.331C845.579 564.641 848.88 569.72 848.948 575.139Z" fill="#FABDBD"/>
<path d="M759.899 550.772C756.281 550.092 752.538 549.846 748.814 550.042C746.957 550.15 745.158 550.566 743.551 551.259C741.944 551.951 740.571 552.903 739.535 554.042C738.056 556.11 737.744 558.524 738.666 560.761C739.597 562.968 740.971 565.061 742.741 566.97C745.874 570.96 749.903 574.53 754.655 577.529C757.032 578.919 759.654 580.069 761.937 581.529C766.8 584.658 769.816 589.028 772.709 593.278C775.426 597.277 778.143 601.357 779.312 605.756C779.322 605.926 779.379 606.092 779.479 606.245C779.58 606.398 779.721 606.535 779.896 606.646C780.273 606.781 780.707 606.802 781.105 606.706L794.486 604.886C794.865 604.898 795.24 604.834 795.573 604.701C795.906 604.567 796.184 604.37 796.376 604.13C796.569 603.89 796.669 603.616 796.666 603.337C796.664 603.058 796.558 602.785 796.361 602.547C793.458 593.363 788.025 584.715 780.399 577.139C783.942 579.604 788.234 581.41 792.917 582.409C797.6 583.407 802.539 583.568 807.324 582.879C809.194 582.683 810.959 582.12 812.432 581.249C815.42 579.249 815.285 575.839 814.619 572.93C814.02 570.337 813.194 567.775 812.146 565.26C809.633 559.261 798.792 557.641 791.443 556.181C781.01 554.148 770.495 552.345 759.899 550.772Z" fill="#3F3D56"/>
<path opacity="0.1" d="M769.802 572.03C771.712 572.586 773.443 573.431 774.883 574.509C772.478 572.51 765.605 571.51 762.235 570.58C758.065 569.44 753.514 568.27 750.009 566.24C756.789 567.814 763.404 569.749 769.802 572.03Z" fill="black"/>
<path d="M813.138 614.175C814.293 615.855 815.393 618.025 813.736 619.455C812.459 620.555 809.905 620.745 809.144 622.084C808.936 622.57 808.943 623.091 809.165 623.573C809.388 624.055 809.813 624.473 810.38 624.764C811.527 625.338 812.856 625.683 814.238 625.764C817.522 626.094 820.853 626.074 824.128 625.704C825.903 625.608 827.582 625.077 828.897 624.194C830.04 623.033 830.636 621.628 830.595 620.195L832.863 601.017C833.064 600.104 832.976 599.17 832.605 598.287C831.695 596.657 829.087 595.987 826.723 595.697C824.08 595.368 821.392 595.287 818.721 595.457C816.92 595.475 815.173 595.917 813.736 596.717C812.401 597.836 811.579 599.235 811.386 600.717C810.774 602.996 809.063 606.156 809.429 608.466C809.66 610.376 811.997 612.495 813.138 614.175Z" fill="#009688"/>
<path d="M783.143 607.976C778.048 607.487 772.869 607.916 768.05 609.226C766.501 609.646 764.803 610.356 764.572 611.556C764.541 612.057 764.717 612.553 765.075 612.979C765.434 613.406 765.959 613.742 766.583 613.945C767.847 614.331 769.209 614.512 770.577 614.475C777.759 614.616 784.946 614.335 792.068 613.635C793.918 613.547 795.712 613.132 797.298 612.425C798.082 612.059 798.673 611.506 798.972 610.859C799.271 610.211 799.26 609.508 798.942 608.866C798.086 607.546 795.749 607.136 794.622 605.946C793.807 605.086 793.603 603.816 792.326 603.366C791.361 603.14 790.314 603.198 789.405 603.526C788.047 603.876 784.786 604.226 783.849 605.056C783.443 606.003 783.206 606.984 783.143 607.976Z" fill="#009688"/>
<path d="M763.906 511.216C773.757 511.216 781.743 505.338 781.743 498.087C781.743 490.837 773.757 484.959 763.906 484.959C754.055 484.959 746.069 490.837 746.069 498.087C746.069 505.338 754.055 511.216 763.906 511.216Z" fill="#FABDBD"/>
<path d="M806.21 492.308C803.343 490.758 799.73 490.228 796.239 489.748C795.06 489.478 793.789 489.524 792.652 489.878C791.902 490.278 791.307 490.816 790.927 491.438C789.851 492.723 789.053 494.123 788.563 495.588C788.324 496.322 788.322 497.087 788.558 497.822C788.794 498.556 789.261 499.24 789.921 499.817C790.981 500.617 792.503 501.017 793.589 501.817C794.294 502.396 794.806 503.088 795.085 503.837C795.363 504.587 795.4 505.374 795.192 506.137C794.754 507.653 793.949 509.099 792.815 510.406C790.196 513.805 787.206 517.042 783.876 520.085C780.412 523.255 776.527 526.305 774.489 530.084C773.353 532.067 772.883 534.221 773.12 536.366C773.356 538.51 774.292 540.581 775.848 542.403C779.149 545.942 785.724 547.842 791.171 546.312C790.675 546.664 790.282 547.087 790.015 547.555C789.749 548.022 789.615 548.525 789.623 549.032L797.094 551.762C797.646 551.911 798.121 552.184 798.453 552.542C798.653 552.91 798.701 553.314 798.589 553.702C798.003 555.919 797.698 558.172 797.679 560.431C797.882 562.681 799.282 565.05 802.053 566.03C804.593 566.93 807.609 566.45 810.38 566.03C816.852 565.065 823.435 564.556 830.038 564.511C833.325 564.511 836.722 564.571 839.751 563.631C841.781 562.972 843.511 561.896 844.732 560.532C845.954 559.169 846.616 557.575 846.638 555.941C846.503 554.207 845.994 552.499 845.131 550.882C840.933 541.583 836.722 532.264 831.097 523.375C827.434 517.46 822.969 511.832 817.771 506.577C816.412 505.247 815.054 503.937 813.546 502.667C812.486 501.757 810.109 500.477 809.674 499.317C809.239 498.158 810.163 497.038 809.674 495.858C809.064 494.433 807.85 493.189 806.21 492.308Z" fill="#009688"/>
<path d="M849.98 575.409C842.156 572.75 834.331 570.09 826.193 568.02C820.202 566.5 813.519 565.31 807.636 567.02C805.87 567.54 804.267 568.29 802.569 568.9C796.877 570.9 790.343 571.24 784.053 571.75C770.056 572.91 756.302 575.317 743.094 578.919C739.929 579.779 736.519 580.919 734.943 583.099C734.052 584.678 733.752 586.404 734.074 588.098C734.305 590.648 734.835 593.328 736.995 595.317C740.581 598.617 747.088 598.867 752.658 599.907C756.943 600.821 761.097 602.039 765.061 603.546C778.076 608.116 791.103 612.685 803.873 617.635C805.368 618.225 807.188 617.635 808.465 616.805C812.312 614.177 815.087 610.811 816.48 607.086C817.865 603.38 818.55 599.551 818.518 595.707C823.517 595.707 827.579 595.547 832.578 595.547C834.417 595.632 836.261 595.459 838.012 595.037C841.368 594.037 843.188 591.408 844.696 588.988C847.386 584.718 850.415 580.089 849.98 575.409Z" fill="#3F3D56"/>
<path opacity="0.1" d="M759.125 589.078C762.643 587.818 766.719 587.788 770.645 587.808C773.038 587.776 775.431 587.91 777.79 588.208C781.394 588.915 784.893 589.883 788.237 591.098C796.569 593.671 805.529 594.964 814.564 594.897" fill="black"/>
<path d="M738.829 499.947C741.518 501.772 744.851 503.003 748.447 503.497C751.979 504.097 755.62 504.327 759.179 504.907C763.553 505.617 768.335 507.316 769.327 510.536C769.556 511.826 769.601 513.129 769.463 514.426C769.398 515.074 769.529 515.725 769.846 516.332C770.163 516.938 770.658 517.486 771.297 517.935C771.997 518.284 772.767 518.551 773.579 518.725C780.705 520.73 786.847 524.266 791.208 528.874C795.569 533.481 797.946 538.948 798.032 544.563C800.27 543.602 802.186 542.284 803.639 540.706C805.092 539.128 806.045 537.329 806.427 535.443C806.427 538.923 810.503 542.443 808.193 545.552C810.713 544.341 812.862 542.757 814.507 540.901C816.151 539.046 817.254 536.96 817.746 534.774C818.237 532.589 818.107 530.352 817.363 528.206C816.619 526.059 815.278 524.05 813.423 522.305C811.63 520.625 809.348 519.225 807.473 517.615C804.812 515.354 802.813 512.713 801.602 509.857C800.391 507.001 799.994 503.991 800.436 501.017C800.83 498.487 801.795 495.928 801.075 493.438C800.029 489.988 795.913 487.589 792 485.539C789.25 484.015 786.301 482.695 783.197 481.599C779.087 480.346 774.738 479.567 770.305 479.289C760.51 478.479 751.802 479.599 745.73 485.689C744.5 487.08 742.924 488.288 741.084 489.248C739.721 489.722 738.447 490.324 737.294 491.038C734.183 493.578 735.949 497.777 738.829 499.947Z" fill="#3F3D56"/>
<path d="M555.623 353.553C555.066 353.383 516.349 341.614 521.66 339.274C524.826 337.884 528.724 332.005 531.387 327.395C533.248 324.186 534.512 321.586 534.512 321.586C534.512 321.586 565.594 317.527 554.468 331.585C552.714 333.737 551.392 336.064 550.542 338.494C547.336 347.993 555.31 353.373 555.623 353.553Z" fill="#A1616A"/>
<path opacity="0.1" d="M554.427 331.545C552.674 333.697 551.352 336.024 550.501 338.454C546.56 338.247 542.77 337.254 539.538 335.58C536.307 333.906 533.757 331.616 532.162 328.955C531.848 328.448 531.576 327.927 531.346 327.395C533.208 324.186 534.471 321.586 534.471 321.586C534.471 321.586 565.553 317.527 554.427 331.545Z" fill="black"/>
<path d="M573.745 321.986C573.722 325.644 571.998 329.185 568.858 332.021C565.719 334.856 561.354 336.814 556.491 337.568C551.628 338.322 546.561 337.827 542.134 336.165C537.707 334.504 534.187 331.775 532.162 328.435C530.936 326.405 530.307 324.207 530.314 321.986C530.341 318.145 532.245 314.44 535.677 311.547C539.109 308.654 543.841 306.766 549.008 306.228C554.175 305.691 559.433 306.54 563.82 308.62C568.207 310.699 571.431 313.872 572.903 317.556C573.461 318.997 573.744 320.488 573.745 321.986Z" fill="#A1616A"/>
<path opacity="0.1" d="M594.693 445.823C593.138 447.069 592.052 448.593 591.541 450.243C591.541 450.243 580.863 455.612 581.57 452.242C582.276 448.873 576 435.044 576 435.044L576.706 453.782C576.706 453.782 542.54 452.602 540.027 450.782C537.514 448.963 523.019 445.393 523.019 445.393C523.019 445.393 518.549 448.033 514.433 450.033C513.89 447.773 513.496 445.783 513.496 445.783L528.181 437.074L564.86 429.995L578.636 426.735L592.071 442.323C592.071 442.323 593.457 443.943 594.693 445.823Z" fill="black"/>
<path d="M595.807 444.343C592.968 445.653 591.894 449.193 591.894 449.193C591.894 449.193 581.217 454.562 581.923 451.192C582.629 447.823 576.408 434.034 576.408 434.034L577.128 452.772C577.128 452.772 542.948 451.592 540.448 449.773C537.949 447.953 523.358 444.403 523.358 444.403C523.358 444.403 510.725 451.872 508.415 451.212C506.106 450.552 512.491 437.854 512.491 437.854L519.066 363.442C519.066 363.442 517.286 341.304 519.962 340.514C520.375 340.394 520.753 340.217 521.076 339.994C522.842 338.834 523.372 336.475 523.521 334.485C523.698 332.135 527.964 333.305 527.964 333.305L525.478 335.665L547.54 345.534L547.73 345.624C548.612 345.29 549.519 344.993 550.447 344.734C552.403 344.184 554.998 343.664 556.696 344.184C557.645 344.542 558.45 345.076 559.032 345.734C560.294 347.124 561.304 348.63 562.035 350.213L570.05 360.162C570.05 360.162 574.125 373.401 574.125 373.921C574.125 374.441 575.375 386.499 576.842 387.809C578.309 389.119 579.695 395.668 579.165 397.638C578.635 399.608 580.048 406.937 580.048 406.937C585.931 410.477 588.946 422.525 588.946 422.525C588.946 422.525 598.211 436.024 598.918 437.594C599.624 439.164 598.66 443.033 595.807 444.343Z" fill="#444053"/>
<path opacity="0.1" d="M547.567 346.003C545.393 348.363 539.144 351.673 539.144 351.673L521.103 340.464C522.869 339.304 523.399 336.934 523.549 334.955C523.725 332.595 527.991 333.775 527.991 333.775L527.475 334.265C527.228 334.5 527.052 334.771 526.957 335.06C526.862 335.349 526.851 335.649 526.924 335.941C526.997 336.234 527.153 336.511 527.381 336.757C527.609 337.002 527.905 337.209 528.249 337.364L547.567 346.003Z" fill="black"/>
<path d="M547.567 345.474C545.393 347.833 539.144 351.153 539.144 351.153L521.103 339.934C522.869 338.774 523.399 336.414 523.549 334.425C523.725 332.075 527.991 333.245 527.991 333.245L527.475 333.735C527.228 333.97 527.052 334.241 526.957 334.53C526.862 334.819 526.851 335.119 526.924 335.412C526.997 335.704 527.153 335.982 527.381 336.227C527.609 336.472 527.905 336.679 528.249 336.834L547.567 345.474Z" fill="#444053"/>
<path opacity="0.1" d="M555.908 347.243C553.571 349.293 550.27 351.623 550.474 350.453C550.678 349.283 548.504 346.713 547.159 345.564C549.274 345.074 551.551 345.119 553.626 345.694C554.555 346.057 555.341 346.591 555.908 347.243V347.243Z" fill="black"/>
<path d="M556.261 346.453C553.925 348.513 550.623 350.833 550.827 349.673C551.031 348.513 549.075 346.613 547.716 345.464C549.673 344.914 552.267 344.394 553.965 344.914C554.902 345.269 555.694 345.8 556.261 346.453V346.453Z" fill="#444053"/>
<path opacity="0.1" d="M521.117 340.584C521.117 340.584 521.348 339.014 518.264 341.724C515.676 343.711 512.7 345.403 509.434 346.743C509.434 346.743 496.27 353.563 495.55 356.742C494.83 359.922 490.565 373.511 492.833 378.05C495.102 382.59 512.3 404.347 512.3 404.347C512.3 404.347 507.79 408.277 508.85 412.906C509.909 417.536 511.227 423.905 510.629 425.305C510.032 426.705 511.349 430.195 509.271 431.415C507.192 432.634 505.128 434.734 511.417 437.534C511.417 437.534 512.599 439.894 511.526 440.414C510.453 440.934 527.312 446.353 533.955 443.473C540.598 440.594 552.593 417.536 552.824 412.377C553.055 407.217 549.143 390.199 547.01 386.179C544.877 382.16 538.465 366.521 535.734 363.032C533.004 359.542 521.117 340.584 521.117 340.584Z" fill="black"/>
<path d="M520.397 340.584C520.397 340.584 520.642 339.014 517.558 341.724C514.953 343.729 511.953 345.435 508.66 346.783C508.66 346.783 495.482 353.603 494.776 356.782C494.069 359.962 489.79 373.551 492.059 378.09C494.328 382.63 511.512 404.387 511.512 404.387C511.512 404.387 507.002 408.317 508.076 412.946C509.149 417.576 510.453 423.945 509.855 425.345C509.257 426.745 510.562 430.235 508.497 431.454C506.432 432.674 504.34 434.774 510.629 437.574C510.629 437.574 511.825 439.934 510.752 440.454C509.679 440.973 526.537 446.393 533.18 443.513C539.823 440.634 551.805 417.576 552.05 412.417C552.294 407.257 548.368 390.239 546.235 386.219C544.103 382.2 537.691 366.561 534.96 363.072C532.229 359.582 520.397 340.584 520.397 340.584Z" fill="#009688"/>
<path opacity="0.1" d="M515.656 355.432C515.656 355.432 525.858 363.732 525.505 369.231C525.505 369.231 525.627 360.322 515.656 355.432Z" fill="black"/>
<path opacity="0.1" d="M550.094 343.554C550.094 343.554 556.71 340.554 565.037 348.183C565.037 348.183 571.082 350.713 572.862 351.333C574.642 351.953 576.666 368.181 576.666 368.181C576.666 368.181 580.578 375.18 579.505 379.18C578.432 383.18 582.602 396.998 582.602 396.998C582.602 396.998 589.476 421.806 589.245 422.496C589.014 423.185 582.236 414.726 582.358 410.497C582.48 406.267 576.666 393.199 575.837 392.419C575.008 391.639 569.303 369.181 569.303 369.181C569.303 369.181 564.684 359.662 561.709 356.522C558.734 353.383 555.066 347.433 553.558 346.384C552.451 345.681 551.217 345.095 549.89 344.644L550.094 343.554Z" fill="black"/>
<path d="M550.012 343.554C550.012 343.554 557.429 340.554 565.73 348.183C565.73 348.183 571.789 350.713 573.568 351.333C575.348 351.953 577.358 368.181 577.358 368.181C577.358 368.181 581.271 375.18 580.211 379.18C579.152 383.18 583.295 396.998 583.295 396.998C583.295 396.998 590.183 421.806 589.938 422.496C589.694 423.185 582.942 414.726 583.051 410.497C583.159 406.267 577.358 393.199 576.53 392.419C575.701 391.639 570.009 369.181 570.009 369.181C570.009 369.181 565.377 359.742 562.415 356.572C559.454 353.403 555.758 347.483 554.264 346.434C552.945 345.676 551.462 345.088 549.876 344.694L550.012 343.554Z" fill="#009688"/>
<path d="M582.589 398.138C582.589 398.138 596.703 391.329 603.523 394.688C610.343 398.048 621.509 402.818 610.533 406.267C599.556 409.717 584.368 409.057 584.368 409.057L582.589 398.138Z" fill="#A1616A"/>
<path opacity="0.1" d="M572.767 463.861C570.661 467.191 568.922 483.859 567.74 489.178C566.056 487.049 564.018 484.509 563.325 483.709C561.734 481.179 560.351 478.582 559.182 475.93C560.54 473.53 564.222 466.651 564.222 464.131C564.222 461.051 571.014 457.182 571.014 457.182C572.229 458.016 573.052 459.111 573.367 460.312C573.682 461.512 573.472 462.754 572.767 463.861V463.861Z" fill="black"/>
<path opacity="0.1" d="M572.903 317.556C572.563 317.686 572.209 317.793 571.843 317.876C570.172 318.206 568.542 317.377 567.061 316.717C565.58 316.057 563.529 315.567 562.239 316.427C560.568 317.546 561.777 319.936 560.051 321.016C558.965 321.706 557.239 321.466 555.976 322.016C554.713 322.566 554.4 323.816 554.088 324.876C553.775 325.936 553.177 327.155 551.751 327.465C550.325 327.775 549.034 327.095 547.676 327.125C547.39 327.125 547.051 327.125 546.86 327.005C546.734 326.868 546.685 326.699 546.725 326.536C546.894 325.262 546.737 323.977 546.263 322.746C546.014 322.131 545.549 321.576 544.914 321.137C544.279 320.698 543.498 320.391 542.649 320.246C540.15 319.966 538.044 321.576 536.577 323.096C535.035 324.695 533.633 326.365 532.379 328.095C532.311 328.185 532.243 328.305 532.162 328.445C530.936 326.415 530.307 324.218 530.314 321.996C530.341 318.155 532.245 314.45 535.677 311.557C539.109 308.664 543.841 306.776 549.008 306.238C554.175 305.701 559.433 306.55 563.82 308.63C568.207 310.71 571.431 313.882 572.903 317.566V317.556Z" fill="black"/>
<path d="M536.604 322.846C538.071 321.326 540.177 319.716 542.676 319.996C543.523 320.141 544.302 320.447 544.937 320.884C545.571 321.321 546.038 321.874 546.29 322.486C546.765 323.717 546.917 325.003 546.738 326.276C546.707 326.444 546.76 326.614 546.888 326.756C547.078 326.916 547.417 326.886 547.703 326.876C549.061 326.876 550.488 327.505 551.778 327.215C553.069 326.926 553.816 325.686 554.115 324.626C554.414 323.566 554.753 322.346 556.003 321.766C557.253 321.186 558.951 321.436 560.079 320.766C561.804 319.686 560.595 317.287 562.266 316.177C563.556 315.317 565.608 315.807 567.088 316.467C568.569 317.127 570.199 317.956 571.87 317.626C572.423 317.481 572.963 317.311 573.487 317.117C576.136 316.377 579.559 317.636 581.719 316.307C582.507 315.724 583.073 315 583.363 314.207C583.962 313.141 584.364 312.021 584.558 310.877C584.753 309.717 584.324 308.548 583.363 307.618C582.005 306.398 579.559 306.088 577.752 305.188C576.288 304.34 575.073 303.282 574.18 302.078C573.288 300.874 572.11 299.797 570.702 298.898C569.988 298.456 569.123 298.167 568.201 298.061C567.279 297.955 566.335 298.037 565.472 298.298C564.952 298.567 564.373 298.767 563.76 298.888C563.094 298.9 562.437 298.768 561.872 298.508C555.704 296.369 548.518 296.749 541.752 297.389C539.023 297.547 536.346 298.023 533.819 298.798C532.558 299.191 531.427 299.779 530.503 300.523C529.579 301.267 528.885 302.148 528.466 303.108C527.923 304.648 528.344 306.318 527.678 307.837C527.23 308.837 526.32 309.747 525.777 310.757C524.337 313.517 526.062 316.557 526.795 319.466C527.597 322.646 527.189 326.086 529.023 329.095C529.39 329.685 529.784 330.715 530.694 330.325C531.36 330.035 532.053 328.325 532.392 327.835C533.657 326.111 535.063 324.444 536.604 322.846V322.846Z" fill="#3F3D56"/>
<path opacity="0.1" d="M497.506 374.04L494.3 380.74C494.3 380.74 501.894 401.528 505.454 405.897C509.013 410.267 514.229 415.896 514.229 415.896C520.189 417.865 526.815 418.471 533.248 417.636C543.45 416.156 573.229 412.226 573.229 412.226C573.932 412.32 574.657 412.272 575.327 412.087C575.997 411.902 576.586 411.588 577.032 411.177C578.391 409.777 585.102 409.077 585.102 409.077C585.102 409.077 592.927 400.698 583.322 397.198C583.322 397.198 582.14 399.128 577.032 397.808C571.924 396.488 570.389 398.858 570.389 398.858C570.389 398.858 562.075 400.088 557.457 399.648C552.838 399.208 541.318 399.038 540.122 398.338C539.974 398.24 539.802 398.166 539.614 398.117C539.427 398.069 539.229 398.049 539.03 398.057C538.832 398.065 538.638 398.102 538.46 398.166C538.281 398.23 538.121 398.319 537.989 398.428C536.614 398.063 535.332 397.528 534.199 396.848C533.248 396.068 531.944 397.728 531.944 397.728C531.944 397.728 530.273 397.028 530.749 396.158C531.224 395.288 529.214 391.959 529.214 391.959C528.677 390.687 528.556 389.341 528.86 388.029C529.444 386.279 525.885 380.03 525.885 380.03C525.843 378.969 526.003 377.909 526.361 376.88C526.958 375.31 521.851 372.161 521.851 372.161C521.851 372.161 516.865 354.353 506.309 360.162C495.754 365.971 497.506 374.04 497.506 374.04Z" fill="black"/>
<path d="M496.786 374.04L493.58 380.74C493.58 380.74 501.174 401.528 504.734 405.897C508.293 410.267 513.523 415.896 513.523 415.896C519.481 417.869 526.109 418.475 532.542 417.636C542.758 416.156 572.536 412.226 572.536 412.226C573.24 412.32 573.965 412.272 574.634 412.087C575.304 411.902 575.893 411.588 576.34 411.177C577.698 409.777 584.409 409.077 584.409 409.077C584.409 409.077 592.234 400.698 582.629 397.198C582.629 397.198 581.434 399.128 576.34 397.808C571.245 396.488 569.683 398.858 569.683 398.858C569.683 398.858 561.383 400.088 556.75 399.648C552.118 399.208 540.611 399.038 539.429 398.338C539.281 398.241 539.109 398.166 538.922 398.117C538.734 398.069 538.536 398.049 538.338 398.057C538.139 398.065 537.945 398.102 537.767 398.166C537.588 398.23 537.428 398.319 537.297 398.428C535.916 398.063 534.63 397.529 533.493 396.848C532.542 396.068 531.238 397.728 531.238 397.728C531.238 397.728 529.58 397.028 530.056 396.158C530.531 395.288 528.507 391.959 528.507 391.959C527.978 390.686 527.858 389.341 528.154 388.029C528.752 386.279 525.192 380.03 525.192 380.03C525.142 378.969 525.302 377.907 525.668 376.88C526.252 375.31 521.158 372.161 521.158 372.161C521.158 372.161 516.172 354.353 505.617 360.162C495.061 365.971 496.786 374.04 496.786 374.04Z" fill="#009688"/>
<path opacity="0.1" d="M526.103 394.298C526.103 394.298 514.474 396.048 518.386 397.528C522.299 399.008 526.103 394.298 526.103 394.298Z" fill="black"/>
<g opacity="0.1">
<path opacity="0.1" d="M546.263 321.006C546.016 320.392 545.551 319.838 544.915 319.4C544.28 318.963 543.498 318.658 542.649 318.517C540.149 318.237 538.044 319.847 536.577 321.356C535.036 322.958 533.63 324.628 532.365 326.356C531.985 326.876 531.333 328.556 530.667 328.846C529.757 329.236 529.309 328.196 528.996 327.606C527.162 324.606 527.638 321.156 526.768 317.977C526.126 316.128 525.614 314.255 525.233 312.367C524.962 314.647 526.184 317.047 526.768 319.367C527.57 322.546 527.162 325.986 528.996 328.996C529.363 329.585 529.757 330.615 530.667 330.225C531.333 329.935 532.026 328.226 532.365 327.746C533.627 326.016 535.033 324.347 536.577 322.746C538.044 321.226 540.149 319.617 542.649 319.907C543.498 320.047 544.28 320.352 544.915 320.79C545.551 321.228 546.016 321.782 546.263 322.396C546.555 323.042 546.716 323.716 546.738 324.396C546.874 323.254 546.713 322.104 546.263 321.006V321.006Z" fill="black"/>
<path opacity="0.1" d="M583.336 312.747C583.049 313.539 582.482 314.26 581.692 314.837C579.532 316.167 576.109 314.917 573.46 315.657C572.916 315.807 572.414 316.047 571.843 316.167C570.172 316.487 568.542 315.667 567.061 315.007C565.581 314.347 563.529 313.847 562.239 314.707C560.568 315.827 561.777 318.216 560.051 319.296C558.965 319.986 557.239 319.746 555.976 320.296C554.713 320.846 554.4 322.086 554.088 323.146C553.775 324.206 553.177 325.426 551.751 325.736C550.325 326.046 549.034 325.366 547.676 325.406C547.39 325.406 547.051 325.406 546.86 325.286C546.814 325.249 546.781 325.205 546.765 325.156C546.765 325.506 546.765 325.856 546.765 326.206C546.737 326.37 546.79 326.537 546.915 326.676C547.105 326.836 547.445 326.806 547.73 326.806C549.088 326.806 550.515 327.425 551.805 327.136C553.096 326.846 553.843 325.616 554.142 324.546C554.441 323.476 554.78 322.276 556.03 321.696C557.28 321.116 558.978 321.366 560.106 320.696C561.831 319.616 560.622 317.227 562.293 316.107C563.584 315.247 565.635 315.737 567.116 316.397C568.596 317.057 570.227 317.886 571.897 317.556C572.448 317.411 572.987 317.244 573.514 317.057C576.163 316.317 579.587 317.566 581.747 316.237C582.534 315.658 583.101 314.937 583.39 314.147C583.988 313.077 584.39 311.954 584.586 310.807C584.647 310.419 584.647 310.026 584.586 309.637C584.325 310.704 583.906 311.747 583.336 312.747V312.747Z" fill="black"/>
</g>
<path d="M346.415 573.38C377.116 573.38 402.005 569.856 402.005 565.51C402.005 561.164 377.116 557.641 346.415 557.641C315.714 557.641 290.826 561.164 290.826 565.51C290.826 569.856 315.714 573.38 346.415 573.38Z" fill="#009688"/>
<path d="M345.491 568.41C349.063 568.41 351.958 565.617 351.958 562.171C351.958 558.725 349.063 555.931 345.491 555.931C341.92 555.931 339.025 558.725 339.025 562.171C339.025 565.617 341.92 568.41 345.491 568.41Z" fill="#3F3D56"/>
<path d="M345.491 560.791C349.063 560.791 351.958 557.998 351.958 554.552C351.958 551.106 349.063 548.312 345.491 548.312C341.92 548.312 339.025 551.106 339.025 554.552C339.025 557.998 341.92 560.791 345.491 560.791Z" fill="#3F3D56"/>
<path d="M345.491 553.172C349.063 553.172 351.958 550.378 351.958 546.932C351.958 543.486 349.063 540.693 345.491 540.693C341.92 540.693 339.025 543.486 339.025 546.932C339.025 550.378 341.92 553.172 345.491 553.172Z" fill="#3F3D56"/>
<path d="M345.491 545.542C349.063 545.542 351.958 542.749 351.958 539.303C351.958 535.857 349.063 533.064 345.491 533.064C341.92 533.064 339.025 535.857 339.025 539.303C339.025 542.749 341.92 545.542 345.491 545.542Z" fill="#3F3D56"/>
<path d="M345.491 537.923C349.063 537.923 351.958 535.13 351.958 531.684C351.958 528.238 349.063 525.445 345.491 525.445C341.92 525.445 339.025 528.238 339.025 531.684C339.025 535.13 341.92 537.923 345.491 537.923Z" fill="#3F3D56"/>
<path d="M345.491 530.304C349.063 530.304 351.958 527.511 351.958 524.065C351.958 520.619 349.063 517.825 345.491 517.825C341.92 517.825 339.025 520.619 339.025 524.065C339.025 527.511 341.92 530.304 345.491 530.304Z" fill="#3F3D56"/>
<path d="M345.491 522.685C349.063 522.685 351.958 519.891 351.958 516.446C351.958 513 349.063 510.206 345.491 510.206C341.92 510.206 339.025 513 339.025 516.446C339.025 519.891 341.92 522.685 345.491 522.685Z" fill="#3F3D56"/>
<path d="M369.713 464.291C370.598 463.461 371.402 462.585 372.118 461.671L355.123 459.622L373.503 459.721C375.268 456.896 376.231 453.836 376.333 450.728C376.436 447.619 375.677 444.528 374.101 441.643L349.431 451.062L372.226 438.734C370.092 436.025 367.224 433.669 363.799 431.812C360.375 429.955 356.468 428.636 352.321 427.938C348.174 427.24 343.877 427.178 339.696 427.755C335.515 428.332 331.541 429.536 328.019 431.292C324.498 433.049 321.505 435.32 319.228 437.964C316.95 440.608 315.436 443.569 314.78 446.662C314.124 449.756 314.34 452.915 315.414 455.945C316.489 458.974 318.398 461.808 321.025 464.271C319.645 465.559 318.461 466.954 317.493 468.431L339.555 476.87L316.026 471.05C314.366 474.646 313.955 478.489 314.828 482.232C315.701 485.974 317.831 489.496 321.025 492.478C317.428 495.844 315.19 499.886 314.567 504.144C313.944 508.402 314.962 512.702 317.503 516.554C320.045 520.406 324.008 523.654 328.939 525.927C333.871 528.199 339.571 529.404 345.389 529.404C351.207 529.404 356.908 528.199 361.839 525.927C366.771 523.654 370.734 520.406 373.276 516.554C375.817 512.702 376.835 508.402 376.212 504.144C375.589 499.886 373.351 495.844 369.754 492.478C374.05 488.457 376.385 483.49 376.385 478.375C376.385 473.259 374.05 468.292 369.754 464.271L369.713 464.291Z" fill="#009688"/>
<path opacity="0.1" d="M314.341 478.39C314.331 483.509 316.672 488.481 320.984 492.498C317.387 495.864 315.149 499.906 314.526 504.164C313.903 508.422 314.921 512.723 317.462 516.575C320.004 520.427 323.967 523.674 328.899 525.947C333.83 528.219 339.531 529.424 345.349 529.424C351.167 529.424 356.867 528.219 361.799 525.947C366.73 523.674 370.693 520.427 373.235 516.575C375.776 512.723 376.794 508.422 376.171 504.164C375.549 499.906 373.311 495.864 369.713 492.498C373.87 488.619 314.341 475.83 314.341 478.39Z" fill="black"/>
<path d="M1276.98 646.372C1307.68 646.372 1332.57 642.849 1332.57 638.503C1332.57 634.157 1307.68 630.634 1276.98 630.634C1246.28 630.634 1221.39 634.157 1221.39 638.503C1221.39 642.849 1246.28 646.372 1276.98 646.372Z" fill="#009688"/>
<path d="M1276.06 641.402C1279.63 641.402 1282.52 638.609 1282.52 635.163C1282.52 631.717 1279.63 628.924 1276.06 628.924C1272.49 628.924 1269.59 631.717 1269.59 635.163C1269.59 638.609 1272.49 641.402 1276.06 641.402Z" fill="#3F3D56"/>
<path d="M1276.06 633.783C1279.63 633.783 1282.52 630.99 1282.52 627.544C1282.52 624.098 1279.63 621.304 1276.06 621.304C1272.49 621.304 1269.59 624.098 1269.59 627.544C1269.59 630.99 1272.49 633.783 1276.06 633.783Z" fill="#3F3D56"/>
<path d="M1276.06 626.164C1279.63 626.164 1282.52 623.371 1282.52 619.925C1282.52 616.479 1279.63 613.685 1276.06 613.685C1272.49 613.685 1269.59 616.479 1269.59 619.925C1269.59 623.371 1272.49 626.164 1276.06 626.164Z" fill="#3F3D56"/>
<path d="M1276.06 618.535C1279.63 618.535 1282.52 615.741 1282.52 612.296C1282.52 608.85 1279.63 606.056 1276.06 606.056C1272.49 606.056 1269.59 608.85 1269.59 612.296C1269.59 615.741 1272.49 618.535 1276.06 618.535Z" fill="#3F3D56"/>
<path d="M1276.06 610.916C1279.63 610.916 1282.52 608.122 1282.52 604.676C1282.52 601.23 1279.63 598.437 1276.06 598.437C1272.49 598.437 1269.59 601.23 1269.59 604.676C1269.59 608.122 1272.49 610.916 1276.06 610.916Z" fill="#3F3D56"/>
<path d="M1276.06 603.296C1279.63 603.296 1282.52 600.503 1282.52 597.057C1282.52 593.611 1279.63 590.818 1276.06 590.818C1272.49 590.818 1269.59 593.611 1269.59 597.057C1269.59 600.503 1272.49 603.296 1276.06 603.296Z" fill="#3F3D56"/>
<path d="M1276.06 595.677C1279.63 595.677 1282.52 592.884 1282.52 589.438C1282.52 585.992 1279.63 583.198 1276.06 583.198C1272.49 583.198 1269.59 585.992 1269.59 589.438C1269.59 592.884 1272.49 595.677 1276.06 595.677Z" fill="#3F3D56"/>
<path d="M1300.28 537.283C1301.16 536.453 1301.97 535.578 1302.68 534.664L1285.69 532.614L1304.07 532.714C1305.83 529.889 1306.8 526.828 1306.9 523.72C1307 520.612 1306.24 517.521 1304.67 514.636L1280 524.055L1302.79 511.726C1300.66 509.018 1297.79 506.662 1294.37 504.805C1290.94 502.947 1287.03 501.629 1282.89 500.931C1278.74 500.233 1274.44 500.17 1270.26 500.747C1266.08 501.324 1262.11 502.528 1258.59 504.285C1255.06 506.041 1252.07 508.312 1249.79 510.956C1247.52 513.6 1246 516.561 1245.35 519.655C1244.69 522.748 1244.91 525.908 1245.98 528.937C1247.05 531.966 1248.96 534.801 1251.59 537.263C1250.21 538.551 1249.03 539.946 1248.06 541.423L1270.12 549.862L1246.59 544.043C1244.93 547.638 1244.52 551.481 1245.39 555.224C1246.27 558.966 1248.4 562.488 1251.59 565.47C1247.99 568.836 1245.76 572.879 1245.13 577.136C1244.51 581.394 1245.53 585.695 1248.07 589.547C1250.61 593.399 1254.57 596.647 1259.51 598.919C1264.44 601.191 1270.14 602.396 1275.96 602.396C1281.77 602.396 1287.47 601.191 1292.41 598.919C1297.34 596.647 1301.3 593.399 1303.84 589.547C1306.38 585.695 1307.4 581.394 1306.78 577.136C1306.16 572.879 1303.92 568.836 1300.32 565.47C1304.62 561.449 1306.95 556.482 1306.95 551.367C1306.95 546.251 1304.62 541.284 1300.32 537.263L1300.28 537.283Z" fill="#009688"/>
<path opacity="0.1" d="M1244.91 551.382C1244.9 556.501 1247.24 561.473 1251.55 565.49C1247.95 568.856 1245.71 572.899 1245.09 577.156C1244.47 581.414 1245.49 585.715 1248.03 589.567C1250.57 593.419 1254.53 596.667 1259.46 598.939C1264.4 601.211 1270.1 602.416 1275.91 602.416C1281.73 602.416 1287.43 601.211 1292.36 598.939C1297.3 596.667 1301.26 593.419 1303.8 589.567C1306.34 585.715 1307.36 581.414 1306.74 577.156C1306.11 572.899 1303.88 568.856 1300.28 565.49C1304.44 561.611 1244.91 548.822 1244.91 551.382Z" fill="black"/>
<path opacity="0.1" d="M549.414 108.948C560.871 108.948 570.159 102.113 570.159 93.68C570.159 85.2475 560.871 78.4116 549.414 78.4116C537.958 78.4116 528.67 85.2475 528.67 93.68C528.67 102.113 537.958 108.948 549.414 108.948Z" fill="#009688"/>
<path opacity="0.1" d="M623.629 51.1946C642.836 51.1946 658.406 39.7343 658.406 25.5973C658.406 11.4603 642.836 0 623.629 0C604.422 0 588.851 11.4603 588.851 25.5973C588.851 39.7343 604.422 51.1946 623.629 51.1946Z" fill="#009688"/>
<path opacity="0.1" d="M577.603 175.401C596.81 175.401 612.38 163.941 612.38 149.804C612.38 135.667 596.81 124.207 577.603 124.207C558.396 124.207 542.826 135.667 542.826 149.804C542.826 163.941 558.396 175.401 577.603 175.401Z" fill="#009688"/>
<path opacity="0.1" d="M1309.49 292.929C1320.95 292.929 1330.23 286.093 1330.23 277.661C1330.23 269.228 1320.95 262.392 1309.49 262.392C1298.03 262.392 1288.75 269.228 1288.75 277.661C1288.75 286.093 1298.03 292.929 1309.49 292.929Z" fill="#009688"/>
<path opacity="0.1" d="M1235.26 235.175C1254.47 235.175 1270.04 223.715 1270.04 209.578C1270.04 195.441 1254.47 183.981 1235.26 183.981C1216.05 183.981 1200.48 195.441 1200.48 209.578C1200.48 223.715 1216.05 235.175 1235.26 235.175Z" fill="#009688"/>
<path opacity="0.1" d="M1281.3 359.382C1300.51 359.382 1316.08 347.922 1316.08 333.785C1316.08 319.648 1300.51 308.188 1281.3 308.188C1262.09 308.188 1246.52 319.648 1246.52 333.785C1246.52 347.922 1262.09 359.382 1281.3 359.382Z" fill="#009688"/>
<path opacity="0.1" d="M136.895 313.967C143.385 313.967 148.646 310.095 148.646 305.318C148.646 300.541 143.385 296.669 136.895 296.669C130.405 296.669 125.144 300.541 125.144 305.318C125.144 310.095 130.405 313.967 136.895 313.967Z" fill="#009688"/>
<path opacity="0.1" d="M187.268 287.08C198.147 287.08 206.966 280.589 206.966 272.581C206.966 264.574 198.147 258.083 187.268 258.083C176.389 258.083 167.57 264.574 167.57 272.581C167.57 280.589 176.389 287.08 187.268 287.08Z" fill="#009688"/>
<path opacity="0.1" d="M92.9887 309.567C103.868 309.567 112.687 303.076 112.687 295.069C112.687 287.062 103.868 280.57 92.9887 280.57C82.1097 280.57 73.2906 287.062 73.2906 295.069C73.2906 303.076 82.1097 309.567 92.9887 309.567Z" fill="#009688"/>
<path opacity="0.1" d="M1007.69 261.972C1014.18 261.972 1019.44 258.1 1019.44 253.323C1019.44 248.547 1014.18 244.674 1007.69 244.674C1001.2 244.674 995.937 248.547 995.937 253.323C995.937 258.1 1001.2 261.972 1007.69 261.972Z" fill="#009688"/>
<path opacity="0.1" d="M1058.06 235.085C1068.94 235.085 1077.76 228.594 1077.76 220.587C1077.76 212.579 1068.94 206.088 1058.06 206.088C1047.18 206.088 1038.36 212.579 1038.36 220.587C1038.36 228.594 1047.18 235.085 1058.06 235.085Z" fill="#009688"/>
<path opacity="0.1" d="M963.781 257.573C974.66 257.573 983.479 251.082 983.479 243.074C983.479 235.067 974.66 228.576 963.781 228.576C952.902 228.576 944.083 235.067 944.083 243.074C944.083 251.082 952.902 257.573 963.781 257.573Z" fill="#009688"/>
<path opacity="0.1" d="M294.222 178.551C321.419 178.551 343.467 162.323 343.467 142.305C343.467 122.287 321.419 106.059 294.222 106.059C267.024 106.059 244.977 122.287 244.977 142.305C244.977 162.323 267.024 178.551 294.222 178.551Z" fill="#009688"/>
<path opacity="0.1" d="M575.429 283.21C591.125 283.21 603.849 273.845 603.849 262.292C603.849 250.74 591.125 241.375 575.429 241.375C559.734 241.375 547.01 250.74 547.01 262.292C547.01 273.845 559.734 283.21 575.429 283.21Z" fill="#009688"/>
<path opacity="0.1" d="M856.637 419.196C872.333 419.196 885.057 409.831 885.057 398.278C885.057 386.725 872.333 377.36 856.637 377.36C840.941 377.36 828.217 386.725 828.217 398.278C828.217 409.831 840.941 419.196 856.637 419.196Z" fill="#009688"/>
<path d="M346.415 592.508C436.073 592.508 508.755 581.763 508.755 568.51C508.755 555.257 436.073 544.513 346.415 544.513C256.757 544.513 184.075 555.257 184.075 568.51C184.075 581.763 256.757 592.508 346.415 592.508Z" stroke="#444053" stroke-miterlimit="10"/>
<path d="M1276.98 663.5C1366.64 663.5 1439.32 652.756 1439.32 639.503C1439.32 626.249 1366.64 615.505 1276.98 615.505C1187.32 615.505 1114.64 626.249 1114.64 639.503C1114.64 652.756 1187.32 663.5 1276.98 663.5Z" stroke="#444053" stroke-miterlimit="10"/>
<path d="M163.019 663.5C252.677 663.5 325.358 652.756 325.358 639.503C325.358 626.249 252.677 615.505 163.019 615.505C73.3612 615.505 0.67926 626.249 0.67926 639.503C0.67926 652.756 73.3612 663.5 163.019 663.5Z" stroke="#444053" stroke-miterlimit="10"/>
</g>
<defs>
<linearGradient id="paint0_linear" x1="555.134" y1="595.607" x2="555.134" y2="295.229" gradientUnits="userSpaceOnUse">
<stop stop-color="#808080" stop-opacity="0.25"/>
<stop offset="0.54" stop-color="#808080" stop-opacity="0.12"/>
<stop offset="1" stop-color="#808080" stop-opacity="0.1"/>
</linearGradient>
<linearGradient id="paint1_linear" x1="-61961.2" y1="119531" x2="-72357.7" y2="119531" gradientUnits="userSpaceOnUse">
<stop stop-color="#808080" stop-opacity="0.25"/>
<stop offset="0.54" stop-color="#808080" stop-opacity="0.12"/>
<stop offset="1" stop-color="#808080" stop-opacity="0.1"/>
</linearGradient>
<clipPath id="clip0">
<rect width="1440" height="664" fill="white"/>
</clipPath>
</defs>
</svg>
